<?xml version="1.0" encoding="UTF-8" standalone="no"?>
<!-- Created with Inkscape (http://www.inkscape.org/) -->

<svg
   width="69.568123mm"
   height="71.433136mm"
   viewBox="0 0 69.568122 71.433136"
   version="1.1"
   id="svg1"
   xml:space="preserve"
   xmlns="http://www.w3.org/2000/svg"
   xmlns:svg="http://www.w3.org/2000/svg"><defs
     id="defs1" /><g
     id="layer1"
     transform="translate(-17.786612,-186.10275)"><g
       id="g134"
       transform="matrix(0.70229801,0,0,0.70408373,-3.9859765,166.82284)"
       style="stroke-width:1.42209"><path
         id="path134"
         style="vector-effect:none;fill:#3a484c;fill-opacity:1;stroke-width:2.13314;paint-order:fill markers stroke"
         d="M 80.420947,37.365624 A 40.732705,40.629404 0 0 0 39.688206,77.995057 40.732705,40.629404 0 0 0 80.420947,118.62449 40.732705,40.629404 0 0 0 121.15369,77.995057 40.732705,40.629404 0 0 0 80.420947,37.365624 Z m -9.324301,6.114562 c 0.08955,-0.01179 0.225176,0.234114 0.381155,0.801477 0.36729,1.335989 2.494887,5.159537 4.821822,6.237132 2.113902,0.978928 5.074495,1.136705 9.500161,2.485165 9.23283,2.813173 11.673427,6.0148 13.920227,8.494037 1.356449,1.496698 2.421579,5.266846 2.421579,5.266846 l 3.36343,-0.966616 c 2.56953,-0.738224 5.29643,-1.527356 5.29643,-1.527356 l -1.19792,-0.973955 7.74009,-0.242939 -6.40457,4.132889 0.42088,-1.359281 -7.70034,2.055803 c 0.45072,0.137498 0.65784,0.510364 0.73214,0.913771 0.1498,0.931044 0.83103,1.946131 0.0721,2.954894 -0.23128,0.307424 -0.86376,0.0768 -0.76746,0.786798 0.36684,2.704324 0.27879,5.632197 -1.36348,8.831656 -1.07688,2.097978 -3.582486,5.559823 -5.864474,8.049262 -3.251553,3.547133 -5.984802,4.922453 -7.297118,7.28962 -1.204599,2.172863 -1.338125,6.826191 -1.329625,7.945771 0.0039,0.51056 -0.102279,0.72075 -0.102279,0.72075 -0.310104,-0.3434 -0.476442,-0.51272 -0.593806,-1.62865 -0.913482,-2.53259 -12.902589,-14.055195 -12.902589,-14.055195 0,0 9.970895,8.512309 12.581772,10.879385 0.06565,-4.409032 1.181352,-4.735431 2.417901,-6.678972 1.236552,-1.943531 3.671949,-3.769062 5.046984,-5.46795 3.386313,-4.18387 4.159294,-5.229944 5.110264,-7.393108 0.9253,-2.104743 1.57016,-4.483357 1.54816,-5.498775 -0.0127,-0.584682 -0.57614,-2.825719 -0.57614,-2.825719 -4.443362,-0.701588 -8.653314,3.337571 -16.257191,6.124104 -8.55958,3.136761 -8.535388,3.007928 -12.754689,5.481894 -6.049073,3.546836 -8.794759,10.411816 -8.720929,16.193206 0.0248,1.94109 1.984463,7.92699 2.944012,9.56047 0.408995,0.69635 0.759377,1.32264 0.778497,1.39084 0.09364,0.33306 -2.452608,-2.37302 -3.598891,-3.82536 -2.204818,-2.79354 -4.191109,-6.65978 -5.181639,-10.279014 -0.334216,-1.221643 -0.541974,-2.211634 -0.644577,-3.107557 -0.169073,-0.347355 -1.010541,-2.133693 -1.226611,-3.693251 -0.240537,-1.736146 -0.57534,-5.06083 1.157444,-7.881921 l 1.171424,-1.906809 -4.255978,1.321849 c 0,0 -2.909774,0.901292 -4.094098,1.224967 -1.184324,0.323676 -2.833512,-0.159099 -3.721037,-0.974689 -2.897876,-2.663008 -3.705358,-4.870749 0.667388,-5.178772 2.269354,-0.159852 3.921709,0.179293 5.983681,0.357435 4.285558,0.370059 6.337295,-0.181899 7.684159,-0.548997 0.578277,-0.157619 -1.114766,-1.667541 -1.114766,-1.667541 0,0 -2.288092,-2.612395 -1.554786,-6.145388 0.733307,-3.532993 4.871859,-4.925558 4.871859,-4.925558 0,0 3.564217,-0.674423 5.330274,0.0734 3.928451,1.66345 5.593737,6.110495 3.698963,9.878273 -0.350414,0.696805 -0.723003,1.312066 -1.184669,1.86424 2.748928,-0.904062 12.920984,-4.071971 12.920984,-4.071971 0,0 11.566051,-3.078914 15.508124,-4.466103 l 7.36e-4,-7.34e-4 7.36e-4,-7.34e-4 7.36e-4,-7.34e-4 c 0.08233,-0.107154 -0.323368,-2.493802 -1.295032,-3.91491 C 95.13,60.141739 91.88786,57.858098 86.161072,55.769494 81.73398,54.154897 79.777725,54.115359 77.32462,53.180842 c -1.389061,-0.529164 -3.118682,-1.783199 -4.606964,-4.164449 -0.400182,5.752621 -4.154435,12.608578 -4.154435,12.608578 0,0 3.42831,-8.546666 3.136061,-13.773361 -0.0025,-0.0531 -0.003,-0.07297 -0.0037,-0.07706 h -7.36e-4 v 7.34e-4 c -3e-4,0.0031 -0.003,0.01315 -0.0059,0.01835 v 7.34e-4 7.34e-4 l -7.36e-4,7.34e-4 -7.36e-4,7.34e-4 -7.36e-4,7.33e-4 h -7.36e-4 l -7.35e-4,7.34e-4 h -7.36e-4 -7.36e-4 -7.36e-4 -7.36e-4 -7.35e-4 v -7.34e-4 l -7.36e-4,-7.33e-4 c -0.03476,-0.02324 -0.152711,-0.360691 -0.564374,-2.627552 -0.186174,-1.0252 -0.159582,-1.669682 -0.01987,-1.688092 z" /><circle
         style="fill:none;fill-opacity:1;stroke:none;stroke-width:2.13313;stroke-dasharray:none;stroke-opacity:1;paint-order:fill markers stroke"
         id="circle117"
         cx="80.352875"
         cy="78.127541"
         r="40.80357" /><path
         d="m 69.42423,118.18536 q 0.520574,0.41046 0.928591,0.45201 0.408018,0.0416 0.776524,-0.0788 0.368506,-0.12034 0.891943,-0.56864 0.440004,-0.55331 0.540438,-0.87848 0.100434,-0.32518 0.120835,-0.84139 l 2.34193,0.005 q 0.01669,0.93581 -0.253842,1.59753 -0.270536,0.66171 -1.078273,1.65535 -0.876396,0.87227 -1.517993,1.14709 -0.645689,0.27113 -1.423115,0.40851 -0.777826,0.12959 -1.558418,-0.0997 -0.78099,-0.23711 -1.501164,-0.88713 -0.71199,-0.64263 -1.023536,-1.39162 -0.311945,-0.75678 -0.258385,-1.54008 0.05316,-0.79109 0.261017,-1.4574 0.203764,-0.67 0.981954,-1.63091 0.905942,-0.905 1.536565,-1.24171 0.630623,-0.3367 1.563249,-0.41568 l 0.24415,2.32917 q -0.51143,0.073 -0.824642,0.20614 -0.313213,0.13313 -0.818687,0.62734 -0.392496,0.56649 -0.474569,0.94536 -0.08207,0.37887 9.37e-4,0.78051 0.08301,0.40164 0.544491,0.87757 z m 12.123811,-10.19345 q 0.760931,1.06189 0.853539,2.128 0.09261,1.06611 -0.480041,2.04609 -0.568168,0.97676 -1.733114,1.81154 -1.164945,0.83477 -2.272507,1.0588 -1.106293,0.21634 -2.066188,-0.21473 -0.963107,-0.43554 -1.73046,-1.5064 -0.581132,-0.81098 -0.774565,-1.6014 -0.196643,-0.79491 -0.02351,-1.55641 0.173136,-0.76151 0.709029,-1.47102 0.532684,-0.71399 1.406393,-1.34007 1.160465,-0.83157 2.278929,-1.04985 1.115253,-0.22276 2.095012,0.20764 0.976549,0.42591 1.73748,1.48781 z m -5.1174,3.69415 q 0.446284,0.62279 1.054779,0.88523 0.612976,0.25923 1.437399,-0.33154 0.63624,-0.45592 0.776502,-0.92261 0.144743,-0.46991 -6.24e-4,-0.83365 -0.144098,-0.37143 -0.431861,-0.82979 -0.473168,-0.60354 -1.077182,-0.86918 -0.607225,-0.27013 -1.485415,0.35916 -1.384493,0.9921 -0.273598,2.54238 z m 8.155238,-0.87519 -3.048893,-7.35247 2.393116,-0.99237 2.875842,2.38783 0.331952,-3.71802 2.393117,-0.99237 3.048893,7.35246 -2.393116,0.99237 -1.266853,-3.05504 -0.270852,3.69269 -0.132385,0.0549 -2.804558,-2.41739 1.266854,3.05504 z m 9.07515,-3.57204 -1.40636,-7.83433 5.099909,-0.915497 q 0.959609,-0.08266 1.65018,0.207796 0.69057,0.290454 1.079552,0.959863 0.39455,0.825218 0.42906,1.267038 0.0345,0.44183 -0.0275,0.84499 -0.062,0.40315 -0.558376,1.00748 -0.496346,0.60432 -1.446628,0.92611 l -2.452296,0.44022 0.464566,2.58794 z m 1.776333,-6.38957 0.259067,1.44317 1.974858,-0.35451 q 0.157337,-0.0282 0.32135,-0.17529 0.163038,-0.15248 0.08916,-0.62644 -0.107964,-0.44544 -0.328602,-0.55144 -0.216186,-0.1124 -0.346397,-0.089 z m 6.156778,4.92727 2.84623,-7.880925 3.95058,0.113723 2.43224,8.032872 -3.0084,-0.0866 -0.46016,-1.44701 -2.36373,-0.068 -0.54264,1.41814 z m 4.77903,-6.060666 -1.23127,3.118816 2.19293,0.0631 z m 10.64564,5.416276 0.37551,-1.56514 2.42274,0.58127 -0.92848,3.86996 -3.43044,-0.82304 q -1.25961,-0.30221 -2.17128,-0.99143 -0.91038,-0.69459 -1.28523,-1.73117 -0.36948,-1.0353 -0.0583,-2.33244 0.21862,-0.9112 0.73806,-1.5405 0.52609,-0.63337 1.26102,-0.955879 0.73622,-0.327869 1.59552,-0.365452 0.86595,-0.04166 1.77716,0.176963 l 2.12258,0.509254 1.30785,0.313784 -0.55298,2.30482 -2.42274,-0.58127 q -0.81472,-0.19547 -1.21758,-0.24111 -0.40286,-0.0456 -0.73539,-0.006 -0.33253,0.0393 -0.63524,0.2614 -0.30271,0.22214 -0.50999,0.92066 -0.1378,0.69252 0.038,1.04648 0.17583,0.35396 0.50645,0.53531 0.33061,0.18136 0.69681,0.3089 0.36621,0.12754 1.10589,0.30501 z m 2.68879,3.22402 3.37401,-7.20906 2.34644,1.09818 0.885,3.70064 1.26175,-2.69591 2.34644,1.09819 -3.37401,7.20906 -2.34644,-1.09819 -0.885,-3.70063 -1.26175,2.69591 z m 11.76122,-2.9322 2.16948,1.41604 -4.35055,6.66537 -2.16948,-1.41604 z m -1.22681,8.62102 5.20391,-6.02279 5.16358,4.46152 -1.54964,1.79349 -3.20326,-2.76773 -0.59823,0.69237 2.06877,1.78749 -0.90816,1.05107 -2.06877,-1.78749 -0.59823,0.69237 3.7121,3.20739 -1.54963,1.79349 z m 9.71887,9.78941 6.93237,-3.91112 2.30767,4.09028 q 0.46857,0.83054 0.60526,1.58884 0.13669,0.7583 0.009,1.40644 -0.12799,0.64814 -0.60399,1.29642 -0.47328,0.65309 -1.49585,1.23 -0.97556,0.48078 -1.78704,0.59051 -0.81148,0.10973 -1.44202,-0.11046 -0.63054,-0.22019 -1.1993,-0.73472 -0.56606,-0.50973 -1.08314,-1.47112 z m 6.51919,-0.62748 -3.48538,1.9664 0.74484,1.32022 q 0.2519,0.44647 0.59351,0.61449 0.34642,0.1653 0.73678,0.17291 0.39516,0.005 1.19037,-0.38046 0.69279,-0.40985 0.92112,-0.77917 0.23584,-0.36722 0.26327,-0.7561 0.0322,-0.39159 -0.22508,-0.84767 z m 2.37076,8.24312 3.2655,-1.19757 0.58266,1.58877 -3.2655,1.19757 z m 3.91748,7.33047 -3.31675,-0.49217 0.43566,2.15015 z m -1.53016,-4.49863 2.32302,-0.47068 1.32668,6.54768 -7.27234,4.18998 -0.59766,-2.9497 1.30501,-0.77622 -0.46959,-2.31762 -1.50423,-0.20702 -0.56701,-2.79843 5.84252,0.68905 z m -3.64966,10.72109 7.95919,0.0763 -0.0497,5.18119 q -0.0974,0.95823 -0.52221,1.57154 -0.42482,0.61332 -1.1331,0.89318 -1.06039,0.21033 -1.63173,0.006 -0.57134,-0.20392 -0.95241,-0.70369 -0.38108,-0.49977 -0.59268,-1.42789 l -0.76635,0.588 -0.0228,2.38114 -2.37012,-0.0227 0.0301,-3.14179 2.65338,-2.49924 -2.62917,-0.0252 z m 5.94732,2.93449 -1.46617,-0.0141 -0.0192,2.00633 q -0.002,0.15984 0.11242,0.34836 0.11946,0.18857 0.59889,0.20419 0.45776,-0.0232 0.60297,-0.22023 0.15067,-0.19149 0.15194,-0.32378 z m -5.02501,11.89825 -0.5398,2.43231 -2.31393,-0.51352 0.76432,-3.44399 q 0.28065,-1.26459 0.9542,-2.1879 0.67893,-0.92212 1.70896,-1.31462 1.02884,-0.38711 2.3311,-0.0981 0.91481,0.20302 1.55289,0.71164 0.64226,0.51519 0.97728,1.24451 0.34039,0.73051 0.39265,1.58904 0.0564,0.86512 -0.14658,1.77993 l -0.47293,2.13097 -0.2914,1.31302 -2.31393,-0.51353 0.53981,-2.43232 q 0.18152,-0.81795 0.22027,-1.22152 0.0388,-0.40358 -0.006,-0.73539 -0.0449,-0.33181 -0.27221,-0.63069 -0.22728,-0.29887 -0.92924,-0.49418 -0.69477,-0.12596 -1.04567,0.0559 -0.35091,0.18185 -0.52659,0.51552 -0.17568,0.33366 -0.29695,0.70199 -0.12127,0.36833 -0.28607,1.11094 z"
         id="path118"
         style="font-size:11.2889px;font-family:'Star Jedi';-inkscape-font-specification:'Star Jedi, Normal';letter-spacing:0.529167px;fill:#3a484c;fill-opacity:1;stroke-width:0.564569;paint-order:fill markers stroke"
         transform="rotate(-27.52369,-51.219826,163.92427)"
         aria-label="Compagnie d'Arc" /><path
         style="font-size:11.2889px;font-family:'Star Jedi';-inkscape-font-specification:'Star Jedi, Normal';letter-spacing:2.10148px;baseline-shift:baseline;fill:#3a484c;fill-opacity:1;stroke-width:0.564569;paint-order:fill markers stroke"
         d="m 105.33892,199.21617 -0.45179,-5.57104 -1.64824,0.13367 -0.19159,-2.36247 6.81271,-0.55249 q 0.96311,0.0104 1.62241,0.36615 0.6593,0.35577 0.98183,1.05961 0.31303,0.85946 0.30472,1.30255 -0.008,0.44309 -0.10898,0.83838 -0.10067,0.39528 -0.65304,0.94886 -0.55238,0.55358 -1.52929,0.78212 l -2.48334,0.20139 0.21253,2.62069 z m 2.38495,-6.18821 0.11852,1.46144 1.99986,-0.16218 q 0.15933,-0.0129 0.33677,-0.14345 0.177,-0.13602 0.14922,-0.6149 -0.0644,-0.45378 -0.27382,-0.58059 -0.20433,-0.13274 -0.33619,-0.12205 z m 7.93065,5.03187 -2.17105,-7.65775 2.49248,-0.70664 1.52455,5.37739 4.14706,-1.17574 0.6465,2.28036 z m 14.97607,-10.3236 q 0.6055,1.15759 0.5486,2.2262 -0.0569,1.06861 -0.76054,1.95921 -0.69877,0.88803 -1.9687,1.55229 -1.26993,0.66425 -2.39791,0.73172 -1.12564,0.06 -2.01608,-0.50063 -0.893,-0.56554 -1.5036,-1.7329 -0.46243,-0.88406 -0.5438,-1.69373 -0.0839,-0.81455 0.19366,-1.54449 0.27759,-0.72994 0.90715,-1.35783 0.627,-0.63278 1.57945,-1.13097 1.26504,-0.6617 2.40301,-0.72195 1.13542,-0.0651 2.04562,0.49762 0.90765,0.55787 1.51314,1.71546 z m -5.58235,2.94481 q 0.35512,0.67892 0.9211,1.02361 0.57086,0.34213 1.46958,-0.12795 0.69357,-0.36279 0.89752,-0.80538 0.20882,-0.44515 0.11558,-0.8256 -0.0909,-0.38789 -0.31199,-0.88188 -0.38443,-0.6636 -0.94552,-1.01084 -0.56364,-0.35213 -1.52097,0.14862 -1.50927,0.78944 -0.6253,2.47942 z m 6.13033,-8.52887 3.01,3.6193 q 0.48916,0.63991 0.95283,0.66295 0.46366,0.0231 1.03718,-0.42525 0.44218,-0.38208 0.53161,-0.88661 0.0894,-0.50453 -0.42802,-1.09224 l -3.01,-3.6193 1.99189,-1.65656 2.98533,3.58964 q 0.62171,0.77343 0.7608,1.43204 0.1398,0.65085 0.0249,1.26263 -0.11071,0.60825 -0.52491,1.2395 -0.40996,0.62771 -1.07395,1.2086 -0.57424,0.45606 -1.2754,0.80259 -0.70045,0.33878 -1.39074,0.39667 -0.68606,0.0544 -1.32167,-0.22715 -0.63137,-0.28505 -1.27284,-1.05638 l -2.98886,-3.59388 z m 12.42693,-4.7423 -1.25496,-1.00782 1.56005,-1.94262 3.10304,2.49194 -2.20893,2.75062 q -0.81109,1.00999 -1.82359,1.54011 -1.01679,0.52666 -2.11419,0.42303 -1.09394,-0.10792 -2.13402,-0.94317 -0.73063,-0.58675 -1.0779,-1.32515 -0.34811,-0.74615 -0.32595,-1.54843 0.0179,-0.80573 0.35077,-1.59882 0.33206,-0.80083 0.91881,-1.53146 l 1.36677,-1.70195 0.84216,-1.04867 1.84806,1.48412 -1.56005,1.94263 q -0.52462,0.65327 -0.7379,0.99807 -0.21327,0.34481 -0.31975,0.66226 -0.10648,0.31746 -0.0349,0.68604 0.0716,0.36858 0.61477,0.85426 0.56738,0.42029 0.96253,0.41242 0.39515,-0.008 0.70031,-0.2294 0.30515,-0.22153 0.57684,-0.49822 0.27168,-0.27669 0.74798,-0.86979 z m 4.37186,-1.84552 -5.89954,-5.95023 1.79652,-3.52031 8.29991,1.24668 -1.36806,2.68073 -1.50455,-0.20467 -1.0749,2.10629 1.04853,1.09825 z m -3.4264,-6.91596 2.28973,2.44953 0.99723,-1.95409 z m 4.6036,-10.81794 -0.54509,1.86214 q -0.4403,1.34718 0.63351,0.62194 2.00414,-1.27422 3.41262,-0.82747 1.40847,0.44676 1.20041,2.17781 l -1.18929,4.06285 -2.27477,-0.66588 0.47076,-1.60821 q 0.48056,-1.48473 -0.72435,-0.62556 -2.23175,1.34544 -3.56899,0.65534 -1.33724,-0.6901 -0.90984,-2.15019 l 1.22026,-4.16865 z m 5.78198,-0.50074 -7.91758,-0.8164 0.26573,-2.57705 3.20397,-2.05243 -2.96086,-0.3053 0.26572,-2.57705 7.91758,0.8164 -0.26573,2.57705 -3.20397,2.05243 2.96086,0.3053 z m -4.04533,-18.36673 q 1.29903,-0.13841 2.27219,0.30669 0.97317,0.44511 1.54337,1.42651 0.56962,0.97591 0.72146,2.40101 0.15184,1.4251 -0.19937,2.49912 -0.35727,1.06913 -1.20559,1.69168 -0.85381,0.62313 -2.1638,0.76271 -0.99209,0.1057 -1.77512,-0.11575 -0.78852,-0.22088 -1.36565,-0.74698 -0.57713,-0.52611 -0.93016,-1.34217 -0.35851,-0.81548 -0.47239,-1.8843 -0.15125,-1.41961 0.21034,-2.50029 0.3561,-1.08009 1.21364,-1.72025 0.85205,-0.63958 2.15108,-0.77798 z m 0.69059,6.27356 q 0.76188,-0.0812 1.29023,-0.48116 0.52777,-0.40546 0.42031,-1.41399 -0.0829,-0.77832 -0.41979,-1.13046 -0.33744,-0.35763 -0.72557,-0.41051 -0.39419,-0.0578 -0.93484,-0.0334 -0.75838,0.11406 -1.28731,0.50856 -0.53441,0.39509 -0.41995,1.46939 0.18045,1.69367 2.07692,1.49161 z m -5.6809,-8.82285 4.46955,-1.47737 q 0.77449,-0.22117 0.96556,-0.64426 0.19106,-0.4231 -0.0164,-1.12086 -0.19384,-0.55131 -0.63069,-0.8191 -0.43684,-0.2678 -1.1731,-0.001 l -4.46955,1.47737 -0.81307,-2.45982 4.43291,-1.46526 q 0.94725,-0.29569 1.61109,-0.1842 0.65688,0.10798 1.18421,0.43875 0.5256,0.32554 0.96157,0.94195 0.43423,0.61118 0.73196,1.44165 0.21438,0.70126 0.2804,1.4806 0.0591,0.77582 -0.13958,1.43945 -0.20037,0.65839 -0.6949,1.14695 -0.49625,0.48334 -1.44878,0.79819 l -4.43814,1.46699 z"
         id="path119"
         transform="matrix(0.56462734,0.82494872,-0.82539977,0.56512942,143.55991,-92.45189)"
         aria-label="Plougasnou" /><g
         id="g122"
         transform="rotate(-15.458548,-167.34243,204.43675)"
         style="fill:#3a484c;fill-opacity:1;stroke-width:1.42209"><path
           style="fill:#3a484c;fill-opacity:1;stroke-width:1.42209"
           d="m 60.837745,153.30505 c -0.08345,-0.17456 -0.15509,-0.31739 -0.159191,-0.31739 -0.0041,0 -0.25573,0.10675 -0.559177,0.23721 -0.303446,0.13046 -0.554184,0.2346 -0.557195,0.23143 -0.005,-0.005 0.238555,-0.6051 1.127186,-2.77667 0.170869,-0.41756 0.310432,-0.72437 0.323545,-0.71125 0.01268,0.0127 0.124292,0.2717 0.248023,0.57561 0.392581,0.96425 0.605558,1.48596 0.894173,2.19035 0.154509,0.3771 0.277641,0.69373 0.273628,0.70363 -0.004,0.01 -0.19773,-0.0644 -0.430484,-0.16506 -0.232753,-0.10068 -0.479718,-0.20587 -0.548813,-0.23376 l -0.125624,-0.0507 -0.158908,0.317 c -0.0874,0.17435 -0.162625,0.317 -0.167168,0.317 -0.0045,0 -0.07654,-0.14282 -0.159995,-0.31739 z m -0.725676,-3.23515 -0.403657,-0.16045 0.377893,-0.15234 c 0.207842,-0.0838 0.395853,-0.15293 0.417803,-0.15365 0.03795,-0.001 0.47585,0.27728 0.47585,0.30265 0,0.007 -0.104452,0.0823 -0.232116,0.16815 l -0.232117,0.15608 z m 1.139173,0.004 c -0.219227,-0.14518 -0.256095,-0.18236 -0.405409,-0.4088 l -0.164251,-0.24909 0.154422,-0.38323 c 0.08493,-0.21078 0.162966,-0.37428 0.173409,-0.36334 0.01044,0.011 0.08493,0.18479 0.165516,0.38632 l 0.146528,0.36644 -0.158207,0.23528 c -0.08701,0.12941 -0.151412,0.23529 -0.143106,0.23529 0.0083,0 0.103867,-0.0599 0.212359,-0.13311 0.108492,-0.0732 0.214609,-0.13976 0.235818,-0.1479 0.02121,-0.008 0.212829,0.0538 0.425826,0.13755 0.447091,0.17589 0.452185,0.14338 -0.05341,0.3409 -0.173914,0.0679 -0.323437,0.12801 -0.332274,0.13347 -0.0088,0.005 -0.124589,-0.0619 -0.257225,-0.14978 z"
           id="path120" /><path
           style="fill:#3a484c;fill-opacity:1;stroke-width:1.42209"
           d="m 55.546078,153.30505 c -0.08345,-0.17456 -0.15509,-0.31739 -0.159191,-0.31739 -0.0041,0 -0.25573,0.10675 -0.559177,0.23721 -0.303446,0.13046 -0.554184,0.2346 -0.557195,0.23143 -0.005,-0.005 0.238555,-0.6051 1.127186,-2.77667 0.170869,-0.41756 0.310432,-0.72437 0.323545,-0.71125 0.01268,0.0127 0.124292,0.2717 0.248023,0.57561 0.392581,0.96425 0.605558,1.48596 0.894173,2.19035 0.154509,0.3771 0.277641,0.69373 0.273628,0.70363 -0.004,0.01 -0.19773,-0.0644 -0.430484,-0.16506 -0.232753,-0.10068 -0.479718,-0.20587 -0.548813,-0.23376 l -0.125624,-0.0507 -0.158908,0.317 c -0.0874,0.17435 -0.162625,0.317 -0.167168,0.317 -0.0045,0 -0.07654,-0.14282 -0.159995,-0.31739 z m -0.725676,-3.23515 -0.403657,-0.16045 0.377893,-0.15234 c 0.207842,-0.0838 0.395853,-0.15293 0.417803,-0.15365 0.03795,-0.001 0.47585,0.27728 0.47585,0.30265 0,0.007 -0.104452,0.0823 -0.232116,0.16815 l -0.232117,0.15608 z m 1.139173,0.004 c -0.219227,-0.14518 -0.256095,-0.18236 -0.405409,-0.4088 l -0.164251,-0.24909 0.154422,-0.38323 c 0.08493,-0.21078 0.162966,-0.37428 0.173409,-0.36334 0.01044,0.011 0.08493,0.18479 0.165516,0.38632 l 0.146528,0.36644 -0.158207,0.23528 c -0.08701,0.12941 -0.151412,0.23529 -0.143106,0.23529 0.0083,0 0.103867,-0.0599 0.212359,-0.13311 0.108492,-0.0732 0.214609,-0.13976 0.235818,-0.1479 0.02121,-0.008 0.212829,0.0538 0.425826,0.13755 0.447091,0.17589 0.452185,0.14338 -0.05341,0.3409 -0.173914,0.0679 -0.323437,0.12801 -0.332274,0.13347 -0.0088,0.005 -0.124589,-0.0619 -0.257225,-0.14978 z"
           id="path121" /><path
           style="fill:#3a484c;fill-opacity:1;stroke-width:1.42209"
           d="m 58.19191,148.01338 c -0.08345,-0.17456 -0.15509,-0.31739 -0.159191,-0.31739 -0.0041,0 -0.25573,0.10675 -0.559177,0.23721 -0.303446,0.13046 -0.554184,0.2346 -0.557195,0.23143 -0.005,-0.005 0.238555,-0.6051 1.127186,-2.77667 0.170869,-0.41756 0.310432,-0.72437 0.323545,-0.71125 0.01268,0.0127 0.124292,0.2717 0.248023,0.57561 0.392581,0.96425 0.605558,1.48596 0.894173,2.19035 0.154509,0.3771 0.277641,0.69373 0.273628,0.70363 -0.004,0.01 -0.19773,-0.0644 -0.430484,-0.16506 -0.232753,-0.10068 -0.479718,-0.20587 -0.548813,-0.23376 l -0.125624,-0.0507 -0.158908,0.317 c -0.0874,0.17435 -0.162625,0.317 -0.167168,0.317 -0.0045,0 -0.07654,-0.14282 -0.159995,-0.31739 z m -0.725676,-3.23515 -0.403657,-0.16045 0.377893,-0.15234 c 0.207842,-0.0838 0.395853,-0.15293 0.417803,-0.15365 0.03795,-0.001 0.47585,0.27728 0.47585,0.30265 0,0.007 -0.104452,0.0823 -0.232116,0.16815 l -0.232117,0.15608 z m 1.139173,0.004 c -0.219227,-0.14518 -0.256095,-0.18236 -0.405409,-0.4088 l -0.164251,-0.24909 0.154422,-0.38323 c 0.08493,-0.21078 0.162966,-0.37428 0.173409,-0.36334 0.01044,0.011 0.08493,0.18479 0.165516,0.38632 l 0.146528,0.36644 -0.158207,0.23528 c -0.08701,0.12941 -0.151412,0.23529 -0.143106,0.23529 0.0083,0 0.103867,-0.0599 0.212359,-0.13311 0.108492,-0.0732 0.214609,-0.13976 0.235818,-0.1479 0.02121,-0.008 0.212829,0.0538 0.425826,0.13755 0.447091,0.17589 0.452185,0.14338 -0.05341,0.3409 -0.173914,0.0679 -0.323437,0.12801 -0.332274,0.13347 -0.0088,0.005 -0.124589,-0.0619 -0.257225,-0.14978 z"
           id="path122" /></g><g
         id="g125"
         transform="rotate(17.112516,280.39355,341.29676)"
         style="fill:#3a484c;fill-opacity:1;stroke-width:1.42209"><path
           style="fill:#3a484c;fill-opacity:1;stroke-width:1.42209"
           d="m 60.837745,153.30505 c -0.08345,-0.17456 -0.15509,-0.31739 -0.159191,-0.31739 -0.0041,0 -0.25573,0.10675 -0.559177,0.23721 -0.303446,0.13046 -0.554184,0.2346 -0.557195,0.23143 -0.005,-0.005 0.238555,-0.6051 1.127186,-2.77667 0.170869,-0.41756 0.310432,-0.72437 0.323545,-0.71125 0.01268,0.0127 0.124292,0.2717 0.248023,0.57561 0.392581,0.96425 0.605558,1.48596 0.894173,2.19035 0.154509,0.3771 0.277641,0.69373 0.273628,0.70363 -0.004,0.01 -0.19773,-0.0644 -0.430484,-0.16506 -0.232753,-0.10068 -0.479718,-0.20587 -0.548813,-0.23376 l -0.125624,-0.0507 -0.158908,0.317 c -0.0874,0.17435 -0.162625,0.317 -0.167168,0.317 -0.0045,0 -0.07654,-0.14282 -0.159995,-0.31739 z m -0.725676,-3.23515 -0.403657,-0.16045 0.377893,-0.15234 c 0.207842,-0.0838 0.395853,-0.15293 0.417803,-0.15365 0.03795,-0.001 0.47585,0.27728 0.47585,0.30265 0,0.007 -0.104452,0.0823 -0.232116,0.16815 l -0.232117,0.15608 z m 1.139173,0.004 c -0.219227,-0.14518 -0.256095,-0.18236 -0.405409,-0.4088 l -0.164251,-0.24909 0.154422,-0.38323 c 0.08493,-0.21078 0.162966,-0.37428 0.173409,-0.36334 0.01044,0.011 0.08493,0.18479 0.165516,0.38632 l 0.146528,0.36644 -0.158207,0.23528 c -0.08701,0.12941 -0.151412,0.23529 -0.143106,0.23529 0.0083,0 0.103867,-0.0599 0.212359,-0.13311 0.108492,-0.0732 0.214609,-0.13976 0.235818,-0.1479 0.02121,-0.008 0.212829,0.0538 0.425826,0.13755 0.447091,0.17589 0.452185,0.14338 -0.05341,0.3409 -0.173914,0.0679 -0.323437,0.12801 -0.332274,0.13347 -0.0088,0.005 -0.124589,-0.0619 -0.257225,-0.14978 z"
           id="path123" /><path
           style="fill:#3a484c;fill-opacity:1;stroke-width:1.42209"
           d="m 55.546078,153.30505 c -0.08345,-0.17456 -0.15509,-0.31739 -0.159191,-0.31739 -0.0041,0 -0.25573,0.10675 -0.559177,0.23721 -0.303446,0.13046 -0.554184,0.2346 -0.557195,0.23143 -0.005,-0.005 0.238555,-0.6051 1.127186,-2.77667 0.170869,-0.41756 0.310432,-0.72437 0.323545,-0.71125 0.01268,0.0127 0.124292,0.2717 0.248023,0.57561 0.392581,0.96425 0.605558,1.48596 0.894173,2.19035 0.154509,0.3771 0.277641,0.69373 0.273628,0.70363 -0.004,0.01 -0.19773,-0.0644 -0.430484,-0.16506 -0.232753,-0.10068 -0.479718,-0.20587 -0.548813,-0.23376 l -0.125624,-0.0507 -0.158908,0.317 c -0.0874,0.17435 -0.162625,0.317 -0.167168,0.317 -0.0045,0 -0.07654,-0.14282 -0.159995,-0.31739 z m -0.725676,-3.23515 -0.403657,-0.16045 0.377893,-0.15234 c 0.207842,-0.0838 0.395853,-0.15293 0.417803,-0.15365 0.03795,-0.001 0.47585,0.27728 0.47585,0.30265 0,0.007 -0.104452,0.0823 -0.232116,0.16815 l -0.232117,0.15608 z m 1.139173,0.004 c -0.219227,-0.14518 -0.256095,-0.18236 -0.405409,-0.4088 l -0.164251,-0.24909 0.154422,-0.38323 c 0.08493,-0.21078 0.162966,-0.37428 0.173409,-0.36334 0.01044,0.011 0.08493,0.18479 0.165516,0.38632 l 0.146528,0.36644 -0.158207,0.23528 c -0.08701,0.12941 -0.151412,0.23529 -0.143106,0.23529 0.0083,0 0.103867,-0.0599 0.212359,-0.13311 0.108492,-0.0732 0.214609,-0.13976 0.235818,-0.1479 0.02121,-0.008 0.212829,0.0538 0.425826,0.13755 0.447091,0.17589 0.452185,0.14338 -0.05341,0.3409 -0.173914,0.0679 -0.323437,0.12801 -0.332274,0.13347 -0.0088,0.005 -0.124589,-0.0619 -0.257225,-0.14978 z"
           id="path124" /><path
           style="fill:#3a484c;fill-opacity:1;stroke-width:1.42209"
           d="m 58.19191,148.01338 c -0.08345,-0.17456 -0.15509,-0.31739 -0.159191,-0.31739 -0.0041,0 -0.25573,0.10675 -0.559177,0.23721 -0.303446,0.13046 -0.554184,0.2346 -0.557195,0.23143 -0.005,-0.005 0.238555,-0.6051 1.127186,-2.77667 0.170869,-0.41756 0.310432,-0.72437 0.323545,-0.71125 0.01268,0.0127 0.124292,0.2717 0.248023,0.57561 0.392581,0.96425 0.605558,1.48596 0.894173,2.19035 0.154509,0.3771 0.277641,0.69373 0.273628,0.70363 -0.004,0.01 -0.19773,-0.0644 -0.430484,-0.16506 -0.232753,-0.10068 -0.479718,-0.20587 -0.548813,-0.23376 l -0.125624,-0.0507 -0.158908,0.317 c -0.0874,0.17435 -0.162625,0.317 -0.167168,0.317 -0.0045,0 -0.07654,-0.14282 -0.159995,-0.31739 z m -0.725676,-3.23515 -0.403657,-0.16045 0.377893,-0.15234 c 0.207842,-0.0838 0.395853,-0.15293 0.417803,-0.15365 0.03795,-0.001 0.47585,0.27728 0.47585,0.30265 0,0.007 -0.104452,0.0823 -0.232116,0.16815 l -0.232117,0.15608 z m 1.139173,0.004 c -0.219227,-0.14518 -0.256095,-0.18236 -0.405409,-0.4088 l -0.164251,-0.24909 0.154422,-0.38323 c 0.08493,-0.21078 0.162966,-0.37428 0.173409,-0.36334 0.01044,0.011 0.08493,0.18479 0.165516,0.38632 l 0.146528,0.36644 -0.158207,0.23528 c -0.08701,0.12941 -0.151412,0.23529 -0.143106,0.23529 0.0083,0 0.103867,-0.0599 0.212359,-0.13311 0.108492,-0.0732 0.214609,-0.13976 0.235818,-0.1479 0.02121,-0.008 0.212829,0.0538 0.425826,0.13755 0.447091,0.17589 0.452185,0.14338 -0.05341,0.3409 -0.173914,0.0679 -0.323437,0.12801 -0.332274,0.13347 -0.0088,0.005 -0.124589,-0.0619 -0.257225,-0.14978 z"
           id="path125" /></g></g></g></svg>
