<?xml version="1.0" encoding="UTF-8" standalone="no"?>
<!-- Created with Inkscape (http://www.inkscape.org/) -->

<svg
   width="75.000008mm"
   height="75.190704mm"
   viewBox="0 0 75.000007 75.190704"
   version="1.1"
   id="svg1"
   xml:space="preserve"
   xmlns="http://www.w3.org/2000/svg"
   xmlns:svg="http://www.w3.org/2000/svg"><defs
     id="defs1" /><g
     id="layer1"
     transform="translate(-14.458987,-5.5441989)"><g
       id="g576"
       transform="matrix(0.70229801,0,0,0.70408373,-4.3880595,-11.78393)"
       style="stroke-width:1.42209"><circle
         style="fill:#72b1c6;fill-opacity:1;stroke:#72b1c6;stroke-width:1.42209;stroke-dasharray:none;stroke-opacity:1;paint-order:fill markers stroke"
         id="circle549"
         cx="80.232376"
         cy="78.007027"
         r="52.685089" /><g
         id="g559"
         transform="matrix(-1,6.981317e-5,6.981317e-5,1,135.08536,-173.06519)"
         style="stroke-width:1.42209"><g
           id="g553"
           transform="matrix(2.1168832,0,0,2.1168832,-144.3719,-265.07955)"
           style="stroke-width:0.671785"><path
             id="path549"
             style="opacity:1;fill:#3a484c;fill-opacity:1;stroke:#779097;stroke-width:0.335892;paint-order:fill markers stroke"
             d="m 94.046453,263.07446 c 10.631467,-10e-6 19.249977,-8.61851 19.249987,-19.24998 -1e-5,-10.63147 -8.61852,-19.24997 -19.249987,-19.24998" /><path
             id="path550"
             style="opacity:1;fill:#3a484c;fill-opacity:1;stroke:#ffffff;stroke-width:0.335892;paint-order:fill markers stroke"
             d="m 94.046453,259.57458 c 8.698557,5e-5 15.750147,-7.05154 15.750097,-15.7501 5e-5,-8.69856 -7.05154,-15.75015 -15.750097,-15.7501" /><path
             id="path551"
             style="opacity:1;fill:#3a484c;fill-opacity:1;stroke:#ffffff;stroke-width:0.335892;paint-order:fill markers stroke"
             d="m 94.046453,255.5745 c 6.489357,1e-5 11.750027,-5.26066 11.750017,-11.75002 1e-5,-6.48936 -5.26066,-11.75003 -11.750017,-11.75002" /><path
             id="path552"
             style="opacity:1;fill:#3a484c;fill-opacity:1;stroke:#ffffff;stroke-width:0.335892;paint-order:fill markers stroke"
             d="m 94.046453,251.57442 c 4.280159,-4e-5 7.749907,-3.46978 7.749937,-7.74994 -3e-5,-4.28016 -3.469778,-7.7499 -7.749937,-7.74994" /><path
             id="path553"
             style="opacity:1;fill:#f6f489;fill-opacity:1;stroke:#ffffff;stroke-width:0.335891;paint-order:fill markers stroke"
             d="m 94.046453,247.57458 c 2.071148,6e-5 3.75016,-1.67895 3.750105,-3.7501 5.5e-5,-2.07115 -1.678957,-3.75016 -3.750105,-3.7501" /></g><path
           id="path554"
           style="fill:#ffffff;stroke:#779097;stroke-width:0.711045;paint-order:fill markers stroke"
           d="m 54.713456,210.31843 c -22.505578,2e-5 -40.749949,18.24439 -40.749967,40.74997 2.3e-5,22.50557 18.244392,40.74994 40.749967,40.74996" /><path
           id="path555"
           style="fill:#3a484c;fill-opacity:1;stroke:#ffffff;stroke-width:0.711045;paint-order:fill markers stroke"
           d="m 54.713456,217.7278 c -18.413433,1.7e-4 -33.340427,14.92717 -33.3406,33.3406 -1.09e-4,18.41363 14.926968,33.34094 33.3406,33.34111" /><path
           id="path556"
           style="fill:#22a9d6;fill-opacity:1;stroke:#ffffff;stroke-width:0.711045;paint-order:fill markers stroke"
           d="m 54.713456,226.19498 c -13.737017,2.6e-4 -24.872923,11.1364 -24.8729,24.87342 -1.8e-5,13.73701 11.135887,24.87315 24.8729,24.87341" /><path
           id="path557"
           style="fill:#df5757;fill-opacity:1;stroke:#ffffff;stroke-width:0.711045;paint-order:fill markers stroke"
           d="m 54.713456,234.66268 c -9.060599,7e-5 -16.405647,7.34512 -16.405717,16.40572 7.5e-5,9.0606 7.345122,16.40564 16.405717,16.40571" /><path
           id="path558"
           style="fill:#f6f489;fill-opacity:1;stroke:#ffffff;stroke-width:0.71104;paint-order:fill markers stroke"
           d="m 54.713456,243.13038 c -4.383979,1.6e-4 -7.937855,3.55404 -7.938017,7.93802 -1.2e-4,4.38418 3.553839,7.93837 7.938017,7.93853" /><path
           style="opacity:1;fill:none;fill-opacity:1;stroke:#ffffff;stroke-width:1.42209;stroke-linecap:square;stroke-dasharray:none;stroke-dashoffset:0;stroke-opacity:1;paint-order:fill markers stroke"
           d="m 54.713457,210.31843 v 81.49992"
           id="path559" /></g><circle
         style="fill:none;fill-opacity:1;stroke:#72b1c6;stroke-width:2.13313;stroke-dasharray:none;stroke-opacity:1;paint-order:fill markers stroke"
         id="circle559"
         cx="80.352875"
         cy="78.127541"
         r="40.80357" /><path
         d="m 69.42423,118.18536 q 0.520574,0.41046 0.928591,0.45201 0.408018,0.0416 0.776524,-0.0788 0.368506,-0.12034 0.891943,-0.56864 0.440004,-0.55331 0.540438,-0.87848 0.100434,-0.32518 0.120835,-0.84139 l 2.34193,0.005 q 0.01669,0.93581 -0.253842,1.59753 -0.270536,0.66171 -1.078273,1.65535 -0.876396,0.87227 -1.517993,1.14709 -0.645689,0.27113 -1.423115,0.40851 -0.777826,0.12959 -1.558418,-0.0997 -0.78099,-0.23711 -1.501164,-0.88713 -0.71199,-0.64263 -1.023536,-1.39162 -0.311945,-0.75678 -0.258385,-1.54008 0.05316,-0.79109 0.261017,-1.4574 0.203764,-0.67 0.981954,-1.63091 0.905942,-0.905 1.536565,-1.24171 0.630623,-0.3367 1.563249,-0.41568 l 0.24415,2.32917 q -0.51143,0.073 -0.824642,0.20614 -0.313213,0.13313 -0.818687,0.62734 -0.392496,0.56649 -0.474569,0.94536 -0.08207,0.37887 9.37e-4,0.78051 0.08301,0.40164 0.544491,0.87757 z m 12.123811,-10.19345 q 0.760931,1.06189 0.853539,2.128 0.09261,1.06611 -0.480041,2.04609 -0.568168,0.97676 -1.733114,1.81154 -1.164945,0.83477 -2.272507,1.0588 -1.106293,0.21634 -2.066188,-0.21473 -0.963107,-0.43554 -1.73046,-1.5064 -0.581132,-0.81098 -0.774565,-1.6014 -0.196643,-0.79491 -0.02351,-1.55641 0.173136,-0.76151 0.709029,-1.47102 0.532684,-0.71399 1.406393,-1.34007 1.160465,-0.83157 2.278929,-1.04985 1.115253,-0.22276 2.095012,0.20764 0.976549,0.42591 1.73748,1.48781 z m -5.1174,3.69415 q 0.446284,0.62279 1.054779,0.88523 0.612976,0.25923 1.437399,-0.33154 0.63624,-0.45592 0.776502,-0.92261 0.144743,-0.46991 -6.24e-4,-0.83365 -0.144098,-0.37143 -0.431861,-0.82979 -0.473168,-0.60354 -1.077182,-0.86918 -0.607225,-0.27013 -1.485415,0.35916 -1.384493,0.9921 -0.273598,2.54238 z m 8.155238,-0.87519 -3.048893,-7.35247 2.393116,-0.99237 2.875842,2.38783 0.331952,-3.71802 2.393117,-0.99237 3.048893,7.35246 -2.393116,0.99237 -1.266853,-3.05504 -0.270852,3.69269 -0.132385,0.0549 -2.804558,-2.41739 1.266854,3.05504 z m 9.07515,-3.57204 -1.40636,-7.83433 5.099909,-0.915497 q 0.959609,-0.08266 1.65018,0.207796 0.69057,0.290454 1.079552,0.959863 0.39455,0.825218 0.42906,1.267038 0.0345,0.44183 -0.0275,0.84499 -0.062,0.40315 -0.558376,1.00748 -0.496346,0.60432 -1.446628,0.92611 l -2.452296,0.44022 0.464566,2.58794 z m 1.776333,-6.38957 0.259067,1.44317 1.974858,-0.35451 q 0.157337,-0.0282 0.32135,-0.17529 0.163038,-0.15248 0.08916,-0.62644 -0.107964,-0.44544 -0.328602,-0.55144 -0.216186,-0.1124 -0.346397,-0.089 z m 6.156778,4.92727 2.84623,-7.880925 3.95058,0.113723 2.43224,8.032872 -3.0084,-0.0866 -0.46016,-1.44701 -2.36373,-0.068 -0.54264,1.41814 z m 4.77903,-6.060666 -1.23127,3.118816 2.19293,0.0631 z m 10.64564,5.416276 0.37551,-1.56514 2.42274,0.58127 -0.92848,3.86996 -3.43044,-0.82304 q -1.25961,-0.30221 -2.17128,-0.99143 -0.91038,-0.69459 -1.28523,-1.73117 -0.36948,-1.0353 -0.0583,-2.33244 0.21862,-0.9112 0.73806,-1.5405 0.52609,-0.63337 1.26102,-0.955879 0.73622,-0.327869 1.59552,-0.365452 0.86595,-0.04166 1.77716,0.176963 l 2.12258,0.509254 1.30785,0.313784 -0.55298,2.30482 -2.42274,-0.58127 q -0.81472,-0.19547 -1.21758,-0.24111 -0.40286,-0.0456 -0.73539,-0.006 -0.33253,0.0393 -0.63524,0.2614 -0.30271,0.22214 -0.50999,0.92066 -0.1378,0.69252 0.038,1.04648 0.17583,0.35396 0.50645,0.53531 0.33061,0.18136 0.69681,0.3089 0.36621,0.12754 1.10589,0.30501 z m 2.68879,3.22402 3.37401,-7.20906 2.34644,1.09818 0.885,3.70064 1.26175,-2.69591 2.34644,1.09819 -3.37401,7.20906 -2.34644,-1.09819 -0.885,-3.70063 -1.26175,2.69591 z m 11.76122,-2.9322 2.16948,1.41604 -4.35055,6.66537 -2.16948,-1.41604 z m -1.22681,8.62102 5.20391,-6.02279 5.16358,4.46152 -1.54964,1.79349 -3.20326,-2.76773 -0.59823,0.69237 2.06877,1.78749 -0.90816,1.05107 -2.06877,-1.78749 -0.59823,0.69237 3.7121,3.20739 -1.54963,1.79349 z m 9.71887,9.78941 6.93237,-3.91112 2.30767,4.09028 q 0.46857,0.83054 0.60526,1.58884 0.13669,0.7583 0.009,1.40644 -0.12799,0.64814 -0.60399,1.29642 -0.47328,0.65309 -1.49585,1.23 -0.97556,0.48078 -1.78704,0.59051 -0.81148,0.10973 -1.44202,-0.11046 -0.63054,-0.22019 -1.1993,-0.73472 -0.56606,-0.50973 -1.08314,-1.47112 z m 6.51919,-0.62748 -3.48538,1.9664 0.74484,1.32022 q 0.2519,0.44647 0.59351,0.61449 0.34642,0.1653 0.73678,0.17291 0.39516,0.005 1.19037,-0.38046 0.69279,-0.40985 0.92112,-0.77917 0.23584,-0.36722 0.26327,-0.7561 0.0322,-0.39159 -0.22508,-0.84767 z m 2.37076,8.24312 3.2655,-1.19757 0.58266,1.58877 -3.2655,1.19757 z m 3.91748,7.33047 -3.31675,-0.49217 0.43566,2.15015 z m -1.53016,-4.49863 2.32302,-0.47068 1.32668,6.54768 -7.27234,4.18998 -0.59766,-2.9497 1.30501,-0.77622 -0.46959,-2.31762 -1.50423,-0.20702 -0.56701,-2.79843 5.84252,0.68905 z m -3.64966,10.72109 7.95919,0.0763 -0.0497,5.18119 q -0.0974,0.95823 -0.52221,1.57154 -0.42482,0.61332 -1.1331,0.89318 -1.06039,0.21033 -1.63173,0.006 -0.57134,-0.20392 -0.95241,-0.70369 -0.38108,-0.49977 -0.59268,-1.42789 l -0.76635,0.588 -0.0228,2.38114 -2.37012,-0.0227 0.0301,-3.14179 2.65338,-2.49924 -2.62917,-0.0252 z m 5.94732,2.93449 -1.46617,-0.0141 -0.0192,2.00633 q -0.002,0.15984 0.11242,0.34836 0.11946,0.18857 0.59889,0.20419 0.45776,-0.0232 0.60297,-0.22023 0.15067,-0.19149 0.15194,-0.32378 z m -5.02501,11.89825 -0.5398,2.43231 -2.31393,-0.51352 0.76432,-3.44399 q 0.28065,-1.26459 0.9542,-2.1879 0.67893,-0.92212 1.70896,-1.31462 1.02884,-0.38711 2.3311,-0.0981 0.91481,0.20302 1.55289,0.71164 0.64226,0.51519 0.97728,1.24451 0.34039,0.73051 0.39265,1.58904 0.0564,0.86512 -0.14658,1.77993 l -0.47293,2.13097 -0.2914,1.31302 -2.31393,-0.51353 0.53981,-2.43232 q 0.18152,-0.81795 0.22027,-1.22152 0.0388,-0.40358 -0.006,-0.73539 -0.0449,-0.33181 -0.27221,-0.63069 -0.22728,-0.29887 -0.92924,-0.49418 -0.69477,-0.12596 -1.04567,0.0559 -0.35091,0.18185 -0.52659,0.51552 -0.17568,0.33366 -0.29695,0.70199 -0.12127,0.36833 -0.28607,1.11094 z"
         id="text559"
         style="font-size:11.2889px;font-family:'Star Jedi';-inkscape-font-specification:'Star Jedi, Normal';letter-spacing:0.529167px;fill:#ffffff;stroke-width:0.564569;paint-order:fill markers stroke"
         transform="rotate(-27.52369,-51.219826,163.92427)"
         aria-label="Compagnie d'Arc" /><path
         style="font-size:11.2889px;font-family:'Star Jedi';-inkscape-font-specification:'Star Jedi, Normal';letter-spacing:2.10148px;baseline-shift:baseline;fill:#ffffff;stroke-width:0.564569;paint-order:fill markers stroke"
         d="m 105.33892,199.21617 -0.45179,-5.57104 -1.64824,0.13367 -0.19159,-2.36247 6.81271,-0.55249 q 0.96311,0.0104 1.62241,0.36615 0.6593,0.35577 0.98183,1.05961 0.31303,0.85946 0.30472,1.30255 -0.008,0.44309 -0.10898,0.83838 -0.10067,0.39528 -0.65304,0.94886 -0.55238,0.55358 -1.52929,0.78212 l -2.48334,0.20139 0.21253,2.62069 z m 2.38495,-6.18821 0.11852,1.46144 1.99986,-0.16218 q 0.15933,-0.0129 0.33677,-0.14345 0.177,-0.13602 0.14922,-0.6149 -0.0644,-0.45378 -0.27382,-0.58059 -0.20433,-0.13274 -0.33619,-0.12205 z m 7.93065,5.03187 -2.17105,-7.65775 2.49248,-0.70664 1.52455,5.37739 4.14706,-1.17574 0.6465,2.28036 z m 14.97607,-10.3236 q 0.6055,1.15759 0.5486,2.2262 -0.0569,1.06861 -0.76054,1.95921 -0.69877,0.88803 -1.9687,1.55229 -1.26993,0.66425 -2.39791,0.73172 -1.12564,0.06 -2.01608,-0.50063 -0.893,-0.56554 -1.5036,-1.7329 -0.46243,-0.88406 -0.5438,-1.69373 -0.0839,-0.81455 0.19366,-1.54449 0.27759,-0.72994 0.90715,-1.35783 0.627,-0.63278 1.57945,-1.13097 1.26504,-0.6617 2.40301,-0.72195 1.13542,-0.0651 2.04562,0.49762 0.90765,0.55787 1.51314,1.71546 z m -5.58235,2.94481 q 0.35512,0.67892 0.9211,1.02361 0.57086,0.34213 1.46958,-0.12795 0.69357,-0.36279 0.89752,-0.80538 0.20882,-0.44515 0.11558,-0.8256 -0.0909,-0.38789 -0.31199,-0.88188 -0.38443,-0.6636 -0.94552,-1.01084 -0.56364,-0.35213 -1.52097,0.14862 -1.50927,0.78944 -0.6253,2.47942 z m 6.13033,-8.52887 3.01,3.6193 q 0.48916,0.63991 0.95283,0.66295 0.46366,0.0231 1.03718,-0.42525 0.44218,-0.38208 0.53161,-0.88661 0.0894,-0.50453 -0.42802,-1.09224 l -3.01,-3.6193 1.99189,-1.65656 2.98533,3.58964 q 0.62171,0.77343 0.7608,1.43204 0.1398,0.65085 0.0249,1.26263 -0.11071,0.60825 -0.52491,1.2395 -0.40996,0.62771 -1.07395,1.2086 -0.57424,0.45606 -1.2754,0.80259 -0.70045,0.33878 -1.39074,0.39667 -0.68606,0.0544 -1.32167,-0.22715 -0.63137,-0.28505 -1.27284,-1.05638 l -2.98886,-3.59388 z m 12.42693,-4.7423 -1.25496,-1.00782 1.56005,-1.94262 3.10304,2.49194 -2.20893,2.75062 q -0.81109,1.00999 -1.82359,1.54011 -1.01679,0.52666 -2.11419,0.42303 -1.09394,-0.10792 -2.13402,-0.94317 -0.73063,-0.58675 -1.0779,-1.32515 -0.34811,-0.74615 -0.32595,-1.54843 0.0179,-0.80573 0.35077,-1.59882 0.33206,-0.80083 0.91881,-1.53146 l 1.36677,-1.70195 0.84216,-1.04867 1.84806,1.48412 -1.56005,1.94263 q -0.52462,0.65327 -0.7379,0.99807 -0.21327,0.34481 -0.31975,0.66226 -0.10648,0.31746 -0.0349,0.68604 0.0716,0.36858 0.61477,0.85426 0.56738,0.42029 0.96253,0.41242 0.39515,-0.008 0.70031,-0.2294 0.30515,-0.22153 0.57684,-0.49822 0.27168,-0.27669 0.74798,-0.86979 z m 4.37186,-1.84552 -5.89954,-5.95023 1.79652,-3.52031 8.29991,1.24668 -1.36806,2.68073 -1.50455,-0.20467 -1.0749,2.10629 1.04853,1.09825 z m -3.4264,-6.91596 2.28973,2.44953 0.99723,-1.95409 z m 4.6036,-10.81794 -0.54509,1.86214 q -0.4403,1.34718 0.63351,0.62194 2.00414,-1.27422 3.41262,-0.82747 1.40847,0.44676 1.20041,2.17781 l -1.18929,4.06285 -2.27477,-0.66588 0.47076,-1.60821 q 0.48056,-1.48473 -0.72435,-0.62556 -2.23175,1.34544 -3.56899,0.65534 -1.33724,-0.6901 -0.90984,-2.15019 l 1.22026,-4.16865 z m 5.78198,-0.50074 -7.91758,-0.8164 0.26573,-2.57705 3.20397,-2.05243 -2.96086,-0.3053 0.26572,-2.57705 7.91758,0.8164 -0.26573,2.57705 -3.20397,2.05243 2.96086,0.3053 z m -4.04533,-18.36673 q 1.29903,-0.13841 2.27219,0.30669 0.97317,0.44511 1.54337,1.42651 0.56962,0.97591 0.72146,2.40101 0.15184,1.4251 -0.19937,2.49912 -0.35727,1.06913 -1.20559,1.69168 -0.85381,0.62313 -2.1638,0.76271 -0.99209,0.1057 -1.77512,-0.11575 -0.78852,-0.22088 -1.36565,-0.74698 -0.57713,-0.52611 -0.93016,-1.34217 -0.35851,-0.81548 -0.47239,-1.8843 -0.15125,-1.41961 0.21034,-2.50029 0.3561,-1.08009 1.21364,-1.72025 0.85205,-0.63958 2.15108,-0.77798 z m 0.69059,6.27356 q 0.76188,-0.0812 1.29023,-0.48116 0.52777,-0.40546 0.42031,-1.41399 -0.0829,-0.77832 -0.41979,-1.13046 -0.33744,-0.35763 -0.72557,-0.41051 -0.39419,-0.0578 -0.93484,-0.0334 -0.75838,0.11406 -1.28731,0.50856 -0.53441,0.39509 -0.41995,1.46939 0.18045,1.69367 2.07692,1.49161 z m -5.6809,-8.82285 4.46955,-1.47737 q 0.77449,-0.22117 0.96556,-0.64426 0.19106,-0.4231 -0.0164,-1.12086 -0.19384,-0.55131 -0.63069,-0.8191 -0.43684,-0.2678 -1.1731,-0.001 l -4.46955,1.47737 -0.81307,-2.45982 4.43291,-1.46526 q 0.94725,-0.29569 1.61109,-0.1842 0.65688,0.10798 1.18421,0.43875 0.5256,0.32554 0.96157,0.94195 0.43423,0.61118 0.73196,1.44165 0.21438,0.70126 0.2804,1.4806 0.0591,0.77582 -0.13958,1.43945 -0.20037,0.65839 -0.6949,1.14695 -0.49625,0.48334 -1.44878,0.79819 l -4.43814,1.46699 z"
         id="text560"
         transform="matrix(0.56462734,0.82494872,-0.82539977,0.56512942,143.55991,-92.45189)"
         aria-label="Plougasnou" /><g
         id="g562"
         transform="rotate(-15.458548,-167.34243,204.43675)"
         style="fill:#ffffff;fill-opacity:1;stroke-width:1.42209"><path
           style="fill:#ffffff;fill-opacity:1;stroke-width:1.42209"
           d="m 60.837745,153.30505 c -0.08345,-0.17456 -0.15509,-0.31739 -0.159191,-0.31739 -0.0041,0 -0.25573,0.10675 -0.559177,0.23721 -0.303446,0.13046 -0.554184,0.2346 -0.557195,0.23143 -0.005,-0.005 0.238555,-0.6051 1.127186,-2.77667 0.170869,-0.41756 0.310432,-0.72437 0.323545,-0.71125 0.01268,0.0127 0.124292,0.2717 0.248023,0.57561 0.392581,0.96425 0.605558,1.48596 0.894173,2.19035 0.154509,0.3771 0.277641,0.69373 0.273628,0.70363 -0.004,0.01 -0.19773,-0.0644 -0.430484,-0.16506 -0.232753,-0.10068 -0.479718,-0.20587 -0.548813,-0.23376 l -0.125624,-0.0507 -0.158908,0.317 c -0.0874,0.17435 -0.162625,0.317 -0.167168,0.317 -0.0045,0 -0.07654,-0.14282 -0.159995,-0.31739 z m -0.725676,-3.23515 -0.403657,-0.16045 0.377893,-0.15234 c 0.207842,-0.0838 0.395853,-0.15293 0.417803,-0.15365 0.03795,-0.001 0.47585,0.27728 0.47585,0.30265 0,0.007 -0.104452,0.0823 -0.232116,0.16815 l -0.232117,0.15608 z m 1.139173,0.004 c -0.219227,-0.14518 -0.256095,-0.18236 -0.405409,-0.4088 l -0.164251,-0.24909 0.154422,-0.38323 c 0.08493,-0.21078 0.162966,-0.37428 0.173409,-0.36334 0.01044,0.011 0.08493,0.18479 0.165516,0.38632 l 0.146528,0.36644 -0.158207,0.23528 c -0.08701,0.12941 -0.151412,0.23529 -0.143106,0.23529 0.0083,0 0.103867,-0.0599 0.212359,-0.13311 0.108492,-0.0732 0.214609,-0.13976 0.235818,-0.1479 0.02121,-0.008 0.212829,0.0538 0.425826,0.13755 0.447091,0.17589 0.452185,0.14338 -0.05341,0.3409 -0.173914,0.0679 -0.323437,0.12801 -0.332274,0.13347 -0.0088,0.005 -0.124589,-0.0619 -0.257225,-0.14978 z"
           id="path560" /><path
           style="fill:#ffffff;fill-opacity:1;stroke-width:1.42209"
           d="m 55.546078,153.30505 c -0.08345,-0.17456 -0.15509,-0.31739 -0.159191,-0.31739 -0.0041,0 -0.25573,0.10675 -0.559177,0.23721 -0.303446,0.13046 -0.554184,0.2346 -0.557195,0.23143 -0.005,-0.005 0.238555,-0.6051 1.127186,-2.77667 0.170869,-0.41756 0.310432,-0.72437 0.323545,-0.71125 0.01268,0.0127 0.124292,0.2717 0.248023,0.57561 0.392581,0.96425 0.605558,1.48596 0.894173,2.19035 0.154509,0.3771 0.277641,0.69373 0.273628,0.70363 -0.004,0.01 -0.19773,-0.0644 -0.430484,-0.16506 -0.232753,-0.10068 -0.479718,-0.20587 -0.548813,-0.23376 l -0.125624,-0.0507 -0.158908,0.317 c -0.0874,0.17435 -0.162625,0.317 -0.167168,0.317 -0.0045,0 -0.07654,-0.14282 -0.159995,-0.31739 z m -0.725676,-3.23515 -0.403657,-0.16045 0.377893,-0.15234 c 0.207842,-0.0838 0.395853,-0.15293 0.417803,-0.15365 0.03795,-0.001 0.47585,0.27728 0.47585,0.30265 0,0.007 -0.104452,0.0823 -0.232116,0.16815 l -0.232117,0.15608 z m 1.139173,0.004 c -0.219227,-0.14518 -0.256095,-0.18236 -0.405409,-0.4088 l -0.164251,-0.24909 0.154422,-0.38323 c 0.08493,-0.21078 0.162966,-0.37428 0.173409,-0.36334 0.01044,0.011 0.08493,0.18479 0.165516,0.38632 l 0.146528,0.36644 -0.158207,0.23528 c -0.08701,0.12941 -0.151412,0.23529 -0.143106,0.23529 0.0083,0 0.103867,-0.0599 0.212359,-0.13311 0.108492,-0.0732 0.214609,-0.13976 0.235818,-0.1479 0.02121,-0.008 0.212829,0.0538 0.425826,0.13755 0.447091,0.17589 0.452185,0.14338 -0.05341,0.3409 -0.173914,0.0679 -0.323437,0.12801 -0.332274,0.13347 -0.0088,0.005 -0.124589,-0.0619 -0.257225,-0.14978 z"
           id="path561" /><path
           style="fill:#ffffff;fill-opacity:1;stroke-width:1.42209"
           d="m 58.19191,148.01338 c -0.08345,-0.17456 -0.15509,-0.31739 -0.159191,-0.31739 -0.0041,0 -0.25573,0.10675 -0.559177,0.23721 -0.303446,0.13046 -0.554184,0.2346 -0.557195,0.23143 -0.005,-0.005 0.238555,-0.6051 1.127186,-2.77667 0.170869,-0.41756 0.310432,-0.72437 0.323545,-0.71125 0.01268,0.0127 0.124292,0.2717 0.248023,0.57561 0.392581,0.96425 0.605558,1.48596 0.894173,2.19035 0.154509,0.3771 0.277641,0.69373 0.273628,0.70363 -0.004,0.01 -0.19773,-0.0644 -0.430484,-0.16506 -0.232753,-0.10068 -0.479718,-0.20587 -0.548813,-0.23376 l -0.125624,-0.0507 -0.158908,0.317 c -0.0874,0.17435 -0.162625,0.317 -0.167168,0.317 -0.0045,0 -0.07654,-0.14282 -0.159995,-0.31739 z m -0.725676,-3.23515 -0.403657,-0.16045 0.377893,-0.15234 c 0.207842,-0.0838 0.395853,-0.15293 0.417803,-0.15365 0.03795,-0.001 0.47585,0.27728 0.47585,0.30265 0,0.007 -0.104452,0.0823 -0.232116,0.16815 l -0.232117,0.15608 z m 1.139173,0.004 c -0.219227,-0.14518 -0.256095,-0.18236 -0.405409,-0.4088 l -0.164251,-0.24909 0.154422,-0.38323 c 0.08493,-0.21078 0.162966,-0.37428 0.173409,-0.36334 0.01044,0.011 0.08493,0.18479 0.165516,0.38632 l 0.146528,0.36644 -0.158207,0.23528 c -0.08701,0.12941 -0.151412,0.23529 -0.143106,0.23529 0.0083,0 0.103867,-0.0599 0.212359,-0.13311 0.108492,-0.0732 0.214609,-0.13976 0.235818,-0.1479 0.02121,-0.008 0.212829,0.0538 0.425826,0.13755 0.447091,0.17589 0.452185,0.14338 -0.05341,0.3409 -0.173914,0.0679 -0.323437,0.12801 -0.332274,0.13347 -0.0088,0.005 -0.124589,-0.0619 -0.257225,-0.14978 z"
           id="path562" /></g><g
         id="g565"
         transform="rotate(17.112516,280.39355,341.29676)"
         style="fill:#ffffff;fill-opacity:1;stroke-width:1.42209"><path
           style="fill:#ffffff;fill-opacity:1;stroke-width:1.42209"
           d="m 60.837745,153.30505 c -0.08345,-0.17456 -0.15509,-0.31739 -0.159191,-0.31739 -0.0041,0 -0.25573,0.10675 -0.559177,0.23721 -0.303446,0.13046 -0.554184,0.2346 -0.557195,0.23143 -0.005,-0.005 0.238555,-0.6051 1.127186,-2.77667 0.170869,-0.41756 0.310432,-0.72437 0.323545,-0.71125 0.01268,0.0127 0.124292,0.2717 0.248023,0.57561 0.392581,0.96425 0.605558,1.48596 0.894173,2.19035 0.154509,0.3771 0.277641,0.69373 0.273628,0.70363 -0.004,0.01 -0.19773,-0.0644 -0.430484,-0.16506 -0.232753,-0.10068 -0.479718,-0.20587 -0.548813,-0.23376 l -0.125624,-0.0507 -0.158908,0.317 c -0.0874,0.17435 -0.162625,0.317 -0.167168,0.317 -0.0045,0 -0.07654,-0.14282 -0.159995,-0.31739 z m -0.725676,-3.23515 -0.403657,-0.16045 0.377893,-0.15234 c 0.207842,-0.0838 0.395853,-0.15293 0.417803,-0.15365 0.03795,-0.001 0.47585,0.27728 0.47585,0.30265 0,0.007 -0.104452,0.0823 -0.232116,0.16815 l -0.232117,0.15608 z m 1.139173,0.004 c -0.219227,-0.14518 -0.256095,-0.18236 -0.405409,-0.4088 l -0.164251,-0.24909 0.154422,-0.38323 c 0.08493,-0.21078 0.162966,-0.37428 0.173409,-0.36334 0.01044,0.011 0.08493,0.18479 0.165516,0.38632 l 0.146528,0.36644 -0.158207,0.23528 c -0.08701,0.12941 -0.151412,0.23529 -0.143106,0.23529 0.0083,0 0.103867,-0.0599 0.212359,-0.13311 0.108492,-0.0732 0.214609,-0.13976 0.235818,-0.1479 0.02121,-0.008 0.212829,0.0538 0.425826,0.13755 0.447091,0.17589 0.452185,0.14338 -0.05341,0.3409 -0.173914,0.0679 -0.323437,0.12801 -0.332274,0.13347 -0.0088,0.005 -0.124589,-0.0619 -0.257225,-0.14978 z"
           id="path563" /><path
           style="fill:#ffffff;fill-opacity:1;stroke-width:1.42209"
           d="m 55.546078,153.30505 c -0.08345,-0.17456 -0.15509,-0.31739 -0.159191,-0.31739 -0.0041,0 -0.25573,0.10675 -0.559177,0.23721 -0.303446,0.13046 -0.554184,0.2346 -0.557195,0.23143 -0.005,-0.005 0.238555,-0.6051 1.127186,-2.77667 0.170869,-0.41756 0.310432,-0.72437 0.323545,-0.71125 0.01268,0.0127 0.124292,0.2717 0.248023,0.57561 0.392581,0.96425 0.605558,1.48596 0.894173,2.19035 0.154509,0.3771 0.277641,0.69373 0.273628,0.70363 -0.004,0.01 -0.19773,-0.0644 -0.430484,-0.16506 -0.232753,-0.10068 -0.479718,-0.20587 -0.548813,-0.23376 l -0.125624,-0.0507 -0.158908,0.317 c -0.0874,0.17435 -0.162625,0.317 -0.167168,0.317 -0.0045,0 -0.07654,-0.14282 -0.159995,-0.31739 z m -0.725676,-3.23515 -0.403657,-0.16045 0.377893,-0.15234 c 0.207842,-0.0838 0.395853,-0.15293 0.417803,-0.15365 0.03795,-0.001 0.47585,0.27728 0.47585,0.30265 0,0.007 -0.104452,0.0823 -0.232116,0.16815 l -0.232117,0.15608 z m 1.139173,0.004 c -0.219227,-0.14518 -0.256095,-0.18236 -0.405409,-0.4088 l -0.164251,-0.24909 0.154422,-0.38323 c 0.08493,-0.21078 0.162966,-0.37428 0.173409,-0.36334 0.01044,0.011 0.08493,0.18479 0.165516,0.38632 l 0.146528,0.36644 -0.158207,0.23528 c -0.08701,0.12941 -0.151412,0.23529 -0.143106,0.23529 0.0083,0 0.103867,-0.0599 0.212359,-0.13311 0.108492,-0.0732 0.214609,-0.13976 0.235818,-0.1479 0.02121,-0.008 0.212829,0.0538 0.425826,0.13755 0.447091,0.17589 0.452185,0.14338 -0.05341,0.3409 -0.173914,0.0679 -0.323437,0.12801 -0.332274,0.13347 -0.0088,0.005 -0.124589,-0.0619 -0.257225,-0.14978 z"
           id="path564" /><path
           style="fill:#ffffff;fill-opacity:1;stroke-width:1.42209"
           d="m 58.19191,148.01338 c -0.08345,-0.17456 -0.15509,-0.31739 -0.159191,-0.31739 -0.0041,0 -0.25573,0.10675 -0.559177,0.23721 -0.303446,0.13046 -0.554184,0.2346 -0.557195,0.23143 -0.005,-0.005 0.238555,-0.6051 1.127186,-2.77667 0.170869,-0.41756 0.310432,-0.72437 0.323545,-0.71125 0.01268,0.0127 0.124292,0.2717 0.248023,0.57561 0.392581,0.96425 0.605558,1.48596 0.894173,2.19035 0.154509,0.3771 0.277641,0.69373 0.273628,0.70363 -0.004,0.01 -0.19773,-0.0644 -0.430484,-0.16506 -0.232753,-0.10068 -0.479718,-0.20587 -0.548813,-0.23376 l -0.125624,-0.0507 -0.158908,0.317 c -0.0874,0.17435 -0.162625,0.317 -0.167168,0.317 -0.0045,0 -0.07654,-0.14282 -0.159995,-0.31739 z m -0.725676,-3.23515 -0.403657,-0.16045 0.377893,-0.15234 c 0.207842,-0.0838 0.395853,-0.15293 0.417803,-0.15365 0.03795,-0.001 0.47585,0.27728 0.47585,0.30265 0,0.007 -0.104452,0.0823 -0.232116,0.16815 l -0.232117,0.15608 z m 1.139173,0.004 c -0.219227,-0.14518 -0.256095,-0.18236 -0.405409,-0.4088 l -0.164251,-0.24909 0.154422,-0.38323 c 0.08493,-0.21078 0.162966,-0.37428 0.173409,-0.36334 0.01044,0.011 0.08493,0.18479 0.165516,0.38632 l 0.146528,0.36644 -0.158207,0.23528 c -0.08701,0.12941 -0.151412,0.23529 -0.143106,0.23529 0.0083,0 0.103867,-0.0599 0.212359,-0.13311 0.108492,-0.0732 0.214609,-0.13976 0.235818,-0.1479 0.02121,-0.008 0.212829,0.0538 0.425826,0.13755 0.447091,0.17589 0.452185,0.14338 -0.05341,0.3409 -0.173914,0.0679 -0.323437,0.12801 -0.332274,0.13347 -0.0088,0.005 -0.124589,-0.0619 -0.257225,-0.14978 z"
           id="path565" /></g><g
         id="g575"
         transform="translate(110.79047,-109.34606)"
         style="stroke-width:1.42209"><path
           id="path568"
           style="fill:#3a484c;fill-opacity:1;stroke-width:1.42263;stroke-dasharray:none"
           d="m 103.05273,117.06836 c -0.10818,0.009 -0.20894,0.0389 -0.2871,0.0801 -0.14572,0.0767 -0.22057,0.16985 -0.27149,0.23633 -0.2091,0.27287 -0.24543,0.48503 -0.3125,0.77734 -0.0685,0.29818 -0.12381,0.66365 -0.16211,1.0957 -0.15653,1.76583 -0.18448,2.28496 -0.16015,2.60938 l -0.002,-0.002 c 5.5e-4,0.008 0.002,0.004 0.002,0.006 -0.50657,2.26171 -2.027345,5.16816 -3.449224,7.47266 -1.438215,2.33097 -2.746094,4.05469 -2.746094,4.05469 a 0.06756465,0.06756465 0 0 0 0,0.002 c -0.248976,0.3407 -0.140135,0.72761 0.109375,0.94141 0.249511,0.21379 0.648757,0.26114 0.947266,-0.0371 a 0.06756465,0.06756465 0 0 0 0.002,0 c 0,0 4.266774,-4.49814 6.476564,-9.41211 0.78777,1.80211 1.76499,3.18182 2.77734,3.92383 2.10933,1.54603 3.85957,2.04668 7.46289,4.60937 4.66304,3.31639 6.91965,6.08352 8.16211,9.70117 0.22537,0.65622 0.3063,1.58686 0.30078,2.32227 -0.002,0.28271 -0.0187,0.49967 -0.0371,0.69726 -4.17681,0.24922 -14.75586,0.19532 -14.75585,0.19532 -0.0186,-3e-5 -0.0378,0.002 -0.0567,0.004 0,0 -1.88333,0.13829 -3.83789,0.28907 -0.9773,0.0754 -1.97204,0.15464 -2.75976,0.2207 -0.726189,0.0609 -1.146196,0.0938 -1.439455,0.13867 -0.0068,-10e-6 -0.01119,1e-5 -0.01758,0 -1.245947,-0.003 -2.259435,0.0833 -3.330078,0.14063 0.214751,-0.16399 0.434804,-0.32665 0.632812,-0.54688 2.945976,-3.27664 2.490473,-8.28239 -0.990234,-11.03516 -1.566444,-1.23885 -4.428925,-1.75285 -6.640625,-1.38281 -2.637551,0.4413 -4.5194,2.18393 -5.337891,4.30274 -0.822887,2.13017 -0.05206,4.9539 0.244141,5.93359 a 0.06756465,0.06756465 0 0 0 0.0078,0.0156 c 0,0 0.211696,0.35684 0.388672,0.6875 -1.281047,-0.0255 -2.973983,-0.15774 -6.146484,-1.33007 -1.805306,-0.66713 -3.292001,-1.42336 -5.50586,-1.86524 -1.080858,-0.21573 -1.924856,-0.25245 -2.625,-0.0605 -0.706171,0.19356 -1.262249,0.72076 -1.427734,1.37304 -0.326165,1.28564 0.380247,2.69824 1.40625,4.33985 0.762056,1.21928 2.254242,2.16211 3.759766,2.16211 1.207056,0 4.089843,-0.0977 4.089843,-0.0977 l 2.38086,-0.082 -0.201172,0.18945 c -2.508305,2.35442 -3.0422,5.68842 -3.263672,7.37891 -0.242241,1.84903 0.212891,4 0.212891,4 a 0.06756465,0.06756465 0 0 0 0.01758,0.0332 c 0.01766,0.018 0.03904,0.0328 0.05859,0.0488 -0.140225,0.79968 -0.29347,1.56975 -0.294922,2.73633 -0.0043,3.69027 0.856108,7.80946 2.216797,11.03515 0.358365,0.84954 0.944888,2.04125 1.451171,3 0.253188,0.47947 0.484745,0.89609 0.664063,1.19141 0.08905,0.14665 0.157607,0.2591 0.25,0.37305 0.01067,0.0131 0.02065,0.0482 0.06445,0.0957 0.04381,0.0475 0.115084,0.0974 0.257813,0.1582 0.03895,0.0166 0.08649,0.0315 0.144531,0.043 0.03881,0.008 0.0876,0.009 0.130859,0.01 0.04326,6.6e-4 0.07755,0 0.07813,0 a 0.06756465,0.06756465 0 0 0 0.0078,-0.002 c 0.0012,-1.3e-4 0.256849,-0.0796 0.257812,-0.0801 a 0.06756465,0.06756465 0 0 0 0,-0.002 c 4.82e-4,-2.6e-4 0.110894,-0.0739 0.111328,-0.0742 a 0.06756465,0.06756465 0 0 0 0.0039,-0.004 c 4.34e-4,-3.7e-4 0.05945,-0.0491 0.0918,-0.0879 0.0976,-0.11708 0.141152,-0.21685 0.158204,-0.29883 0.01705,-0.082 0.008,-0.14584 0.0078,-0.17383 -6.76e-4,-0.13623 -0.01488,-0.15099 -0.01953,-0.17578 -0.0076,-0.0405 -0.01748,-0.0805 -0.02734,-0.125 -0.02034,-0.0917 -0.04626,-0.20843 -0.08008,-0.3457 -0.06744,-0.27378 -0.160802,-0.62991 -0.261719,-1.00586 -0.190807,-0.71069 -0.39968,-2.68152 -0.470703,-4.59571 -0.03551,-0.95694 -0.03634,-1.93169 -0.0039,-2.7539 0.03243,-0.82221 0.09784,-1.49523 0.185547,-1.83203 1.33317,-5.11841 5.440223,-10.54517 11.59375,-12.20899 4.486345,-1.21304 4.310639,-1.08212 12.960936,-1.8164 3.90696,-0.33165 7.09128,-1.17064 9.72461,-1.68946 2.42451,-0.47768 4.32301,-0.63343 5.96094,-0.0488 -0.005,0.18691 -0.006,0.29815 -0.0215,0.63282 -0.0142,0.30334 -0.0397,0.64362 -0.0644,0.91797 -0.0124,0.13717 -0.0227,0.25765 -0.0332,0.3496 -0.0105,0.092 -0.0229,0.16192 -0.0254,0.17188 -0.0783,0.31174 -0.41528,1.05336 -0.89649,1.85937 -0.48161,0.80669 -1.10884,1.71783 -1.77539,2.54102 -1.38286,1.70783 -2.26166,2.39704 -6.41992,5.39258 -1.56018,1.12392 -4.28598,2.18798 -6.07031,3.81055 -1.30986,1.19111 -2.51709,1.75793 -3.59961,4.54687 -2.3873,-3.66462 -8.056643,-12.05664 -8.056643,-12.05664 -0.123997,-0.18206 -0.293256,-0.28098 -0.464843,-0.30664 -0.171588,-0.0257 -0.345463,0.0187 -0.488282,0.10937 -0.142818,0.0907 -0.254904,0.22834 -0.304687,0.39454 -0.04978,0.16619 -0.03388,0.3611 0.07813,0.55078 0,0 2.021162,3.39768 4.0625,7.10937 1.020657,1.85582 2.045131,3.78969 2.82227,5.40625 0.38856,0.80827 0.7153,1.5382 0.94531,2.12891 0.22669,0.58222 0.35057,1.05556 0.36523,1.21679 -0.0674,0.45352 -0.10505,0.81963 -0.0645,1.125 0.0458,0.3451 0.17674,0.60434 0.27344,0.79688 0.2207,0.43797 0.82024,0.51706 1.14648,0.15039 a 0.06756465,0.06756465 0 0 0 0.002,-0.002 c 0,0 0.10479,-0.12621 0.18555,-0.2793 0.0792,-0.15011 0.1651,-0.36012 0.24024,-0.64258 0.12826,-0.48213 0.51803,-1.79203 1.06836,-3.1582 0.55005,-1.36556 1.29676,-2.80813 1.98242,-3.51172 1.59285,-1.63454 4.43808,-2.26752 8.40429,-4.76953 2.77881,-1.75297 5.95164,-4.29715 7.55469,-6.05078 2.38632,-2.61049 3.26397,-5.41029 3.63086,-8.03711 0.0572,0.009 0.11655,0.022 0.21094,0.01 0.12325,-0.0159 0.27374,-0.0714 0.45117,-0.20898 0.64541,-0.50059 0.88014,-1.21536 0.92773,-1.80273 0.0471,-0.58129 -0.0167,-1.08768 0.0176,-1.40625 v -0.002 c 6.3e-4,-0.005 0.002,-0.008 0.002,-0.008 a 0.06756465,0.06756465 0 0 0 0,-0.008 c 0.0146,-0.17065 -9.9e-4,-0.35344 -0.0352,-0.53516 l 5.23437,0.15625 -0.0684,0.10742 c -0.1728,0.27221 -0.13022,0.58579 0.0352,0.80078 0.16538,0.215 0.45625,0.33743 0.76367,0.24024 l 6.91797,-2.19141 c 0.33315,-0.10524 0.49845,-0.40385 0.48828,-0.6914 -0.0102,-0.28756 -0.19539,-0.57288 -0.53515,-0.6543 l -7.16211,-1.72266 c -0.31064,-0.075 -0.59119,0.0659 -0.74219,0.28907 -0.151,0.22315 -0.17533,0.53443 0.01,0.79492 l 0.0801,0.11133 c -0.8374,0.012 -2.01333,0.03 -3.91015,0.0547 l -2.66211,0.0371 c -0.007,-0.33183 -0.01,-0.66073 -0.0879,-1.44531 -0.11814,-1.18271 -0.31873,-2.58043 -0.8418,-3.61719 -1.41493,-2.80457 -3.02296,-6.62203 -10.88086,-11.59375 -3.78077,-2.39209 -6.48667,-3.32817 -8.00976,-4.61718 -0.75111,-0.63568 -1.45838,-1.95764 -1.91602,-3.26954 -0.45769,-1.31202 -0.6875,-2.66935 -0.6875,-3.15234 0,-0.39005 -0.01,-0.65431 -0.0996,-0.93555 -0.0199,-0.0619 -0.0417,-0.16204 -0.10937,-0.26562 -0.0677,-0.10358 -0.1828,-0.20679 -0.37891,-0.28125 -0.10513,-0.0399 -0.21994,-0.0523 -0.32813,-0.043 z"
           transform="matrix(1.0137561,-0.27705955,0.27787936,1.0107653,-176.95777,62.368996)" /><g
           id="g574"
           transform="matrix(1.0137561,-0.27705956,0.27787935,1.0107653,-176.95777,62.368996)"
           style="stroke-width:1.35489"><g
             id="g571"
             style="stroke-width:1.35489"><path
               style="fill:#72b1c6;fill-opacity:1;stroke-width:1.35489"
               d="m 114.82368,148.33508 c -4.54156,-0.0268 -18.773763,0.70167 -22.999055,0.67242 -4.317965,-0.0299 1.681875,-1.38723 1.717096,-1.42241 0.06969,-0.0697 13.562909,-0.54481 13.562909,-0.54481 0,0 11.38822,0.0753 15.35495,-0.2098 0.0999,-0.007 0.34404,-2.35309 -0.19744,-3.92974 -1.29251,-3.76341 -3.6908,-6.68022 -8.41827,-10.04242 -3.65457,-2.59915 -5.43962,-3.12737 -7.45461,-4.60426 -1.14098,-0.83628 -2.41179,-2.42511 -3.17664,-4.99065 -1.81819,5.19297 -6.991726,10.55751 -6.991726,10.55751 0,0 5.301536,-7.00266 6.351766,-11.88581 0.0758,-0.35236 -0.17006,0.89958 0.14151,-2.61532 0.14405,-1.62497 0.55574,-2.16226 0.55574,-0.72528 0,1.32176 0.98721,5.37507 2.85035,6.95189 1.69257,1.43245 4.36892,2.32255 8.08931,4.67644 7.76148,4.9107 9.19353,8.47078 10.6296,11.31725 0.86696,1.71841 0.89298,5.45522 0.89298,5.45522 l 3.32979,-0.0433 c 2.54374,-0.0331 5.24422,-0.0734 5.24422,-0.0734 l -0.85289,-1.19767 7.16242,1.72287 -6.91923,2.19221 0.7291,-1.14516 z"
               id="path569" /><path
               style="fill:#72b1c6;fill-opacity:1;stroke-width:1.35489"
               d="m 77.131184,157.20735 c 0.21723,-1.65811 0.749012,-4.80161 3.050415,-6.96182 l 1.555316,-1.4599 -4.237718,0.14612 c 0,0 -2.89734,0.0974 -4.065593,0.0974 -1.168254,0 -2.559761,-0.85892 -3.168338,-1.83264 -1.987074,-3.17932 -2.171003,-5.41413 1.91866,-4.59786 2.12244,0.42363 3.553104,1.15184 5.400017,1.83434 3.838631,1.41849 5.860475,1.42599 7.18881,1.42691 0.570323,3.9e-4 -0.602194,-1.81471 -0.602194,-1.81471 0,0 -1.440764,-2.97959 0.123193,-6.04626 1.563957,-3.06667 5.712693,-3.30702 5.712693,-3.30702 0,0 3.440278,0.27581 4.871998,1.40811 3.184746,2.5187 3.590799,7.02971 0.901981,10.02033 -1.369412,1.52312 -2.737659,2.43258 -5.481063,2.7443 -5.460878,0.62052 -9.878856,3.86928 -12.226059,9.5775 -0.56921,1.38427 -0.735807,2.53567 -0.735807,2.53567 0,0 -0.423542,-2.11235 -0.206311,-3.77047 z"
               id="path570" /><path
               style="fill:#ffffff;fill-opacity:1;stroke-width:1.35489"
               d="m 102.64502,177.25554 c -0.1993,-2.56025 -8.292594,-16.17814 -8.292594,-16.17814 0,0 7.001224,10.34069 8.799624,13.17551 1.17235,-4.04072 2.27801,-4.06069 3.90277,-5.53817 1.62476,-1.47747 4.3196,-2.54493 6.00971,-3.76245 4.16225,-2.9984 5.13587,-3.76664 6.55401,-5.51804 1.37984,-1.7041 2.57046,-3.73082 2.80636,-4.67076 0.13584,-0.54122 0.18401,-2.7456 0.18401,-2.7456 -3.89978,-1.76308 -8.7805,0.89517 -16.45988,1.54704 -8.644573,0.7338 -8.589755,0.62173 -13.084965,1.83717 -6.444633,1.74253 -10.6954,7.36921 -12.085941,12.70786 -0.466864,1.79244 -0.178668,7.79386 0.289686,9.53833 0.199607,0.74364 0.363191,1.4074 0.363526,1.47501 0.0019,0.33003 -1.651443,-2.80029 -2.336816,-4.42503 -1.318272,-3.12514 -2.165769,-7.18255 -2.161634,-10.76211 0.0046,-3.69702 0.549715,-5.09576 2.061855,-8.00541 2.271329,-4.37047 6.721731,-6.493 10.861478,-7.13314 3.37746,-0.52226 10.641621,-0.58079 16.428411,-0.58078 4.74198,0 19.43315,-0.039 19.43315,-0.039 1.15564,0.0253 1.41803,0.64612 1.36574,1.25347 -0.0974,0.89443 0.27168,1.99989 -0.67907,2.7373 -0.28974,0.22473 -0.8111,-0.14646 -0.90183,0.53111 -0.34556,2.5808 -1.16602,5.25299 -3.47982,7.78414 -1.51722,1.65975 -4.68862,4.21541 -7.41026,5.93231 -3.878,2.44636 -6.73215,3.02424 -8.53328,4.87249 -1.65329,1.69654 -2.94973,5.94523 -3.22436,6.97761 -0.12524,0.47079 -0.27545,0.63754 -0.27545,0.63754 -0.19788,-0.39399 -0.30821,-0.59188 -0.13441,-1.64829 z"
               id="path571" /></g><g
             id="g572"
             style="stroke-width:1.35489" /><g
             id="g573"
             style="stroke-width:1.35489" /></g></g></g></g></svg>
