<?xml version="1.0" encoding="UTF-8" standalone="no"?>
<!-- Created with Inkscape (http://www.inkscape.org/) -->

<svg
   width="75.000603mm"
   height="75.190247mm"
   viewBox="0 0 75.000602 75.190247"
   version="1.1"
   id="svg1"
   xml:space="preserve"
   xmlns="http://www.w3.org/2000/svg"
   xmlns:svg="http://www.w3.org/2000/svg"><defs
     id="defs1" /><g
     id="layer1"
     transform="translate(83.141367,-184.22421)"><g
       id="g90"
       transform="matrix(0.70229801,0,0,0.70408373,-101.98784,166.8958)"
       style="stroke-width:1.42209"><path
         id="path84"
         style="baseline-shift:baseline;display:inline;overflow:visible;vector-effect:none;fill:#72b1c6;fill-opacity:1;paint-order:fill markers stroke;enable-background:accumulate;stop-color:#000000"
         d="M 80.232358,24.611256 C 50.750981,24.61109 26.835703,48.524957 26.835434,78.006333 26.835292,107.488 50.750691,131.40305 80.232358,131.40288 109.71374,131.40264 133.62869,107.48771 133.62855,78.006333 133.62828,48.525247 109.71345,24.6115 80.232358,24.611256 Z m 1.656328,2.771407 0.339213,7.95238 -2.588612,0.110827 -2.494427,-2.872692 0.126561,2.973243 -2.588611,0.110827 -0.339213,-7.95238 2.588612,-0.110093 2.495162,2.872692 -0.127296,-2.973978 z m 1.869717,0.239268 2.57831,0.253214 -0.778496,7.921554 -2.578311,-0.253214 z m -11.887894,0.391931 0.574674,2.299475 -2.417165,0.604043 c -0.541899,0.135427 -0.939047,0.252232 -1.191292,0.349361 -0.252221,0.09715 -0.470479,0.208091 -0.654879,0.333949 -0.184491,0.125681 -0.331683,0.300939 -0.442227,0.52551 -0.110534,0.224589 -0.119874,0.575655 -0.02723,1.052489 0.131886,0.451877 0.304295,0.75499 0.517281,0.910102 0.212998,0.155093 0.445487,0.235374 0.69682,0.240736 0.251334,0.0054 0.505049,-0.01029 0.760837,-0.04771 0.255802,-0.03741 0.629403,-0.117787 1.121389,-0.240736 v -7.34e-4 l -0.389984,-1.561118 2.417165,-0.604044 0.964659,3.860593 -3.422295,0.855789 c -0.837805,0.20938 -1.632729,0.25065 -2.384054,0.124038 -0.752215,-0.130184 -1.398658,-0.444307 -1.939619,-0.941662 -0.537393,-0.498254 -0.913834,-1.17837 -1.129482,-2.041123 -0.151467,-0.606069 -0.170629,-1.175096 -0.05739,-1.707174 0.115897,-0.536533 0.341805,-1.013385 0.676954,-1.430474 0.33425,-0.420652 0.749296,-0.77435 1.245741,-1.061296 0.499127,-0.29141 1.051732,-0.51276 1.657801,-0.664228 L 70.5659,28.339734 Z m 16.615532,0.07413 6.640768,1.57066 -0.545242,2.306814 -4.119852,-0.97469 -0.210444,0.890285 2.660722,0.629732 -0.320081,1.351207 -2.660722,-0.628998 -0.210445,0.890285 4.773995,1.129554 -0.545242,2.30608 -7.295647,-1.724789 z m -28.620422,3.622792 5.86963,6.000065 -2.708551,1.313042 -1.076503,-1.070103 -2.127253,1.031938 0.173653,1.508273 -2.568745,1.246252 -1.117709,-8.304678 z m 44.271291,1.641119 3.93664,2.561496 c 0.53289,0.346667 0.95706,0.722618 1.27149,1.128819 0.31443,0.406215 0.53364,0.820791 0.65782,1.243316 0.12401,0.422628 0.14499,0.899084 0.0633,1.429007 -0.0786,0.531919 -0.33107,1.125929 -0.75789,1.782038 -0.42864,0.584789 -0.86602,1.034139 -1.31196,1.349005 -0.44596,0.31488 -0.88901,0.504735 -1.32963,0.568814 -0.44062,0.06408 -0.90844,0.03136 -1.40321,-0.09762 -0.49169,-0.126971 -1.03899,-0.394598 -1.64087,-0.803679 l -3.825527,-2.488834 z m -45.272005,0.805146 0.349514,3.334348 1.974203,-0.957074 z m 46.423565,2.298007 -2.18244,3.354899 1.27076,0.826431 c 0.28648,0.186354 0.55641,0.276738 0.81014,0.270828 0.25573,-0.009 0.50048,-0.07139 0.73361,-0.187158 0.23516,-0.118786 0.52791,-0.415211 0.8793,-0.888083 0.28333,-0.455738 0.43573,-0.827655 0.45695,-1.116342 0.0263,-0.28977 -0.0119,-0.553575 -0.11553,-0.791935 -0.1016,-0.241431 -0.29898,-0.457705 -0.59159,-0.648081 z m -53.243872,0.195231 c 0.428804,-0.0012 0.834629,0.118936 1.216309,0.360371 0.487489,0.366327 0.808881,0.674931 0.965394,0.925515 0.156513,0.250584 0.278888,0.504393 0.366438,0.761843 0.08754,0.257454 0.07785,0.641361 -0.02943,1.151572 -0.107269,0.510195 -0.392336,1.006924 -0.855022,1.489925 l -1.97126,1.523686 1.607765,2.080023 -2.276624,1.759285 -4.867444,-6.297316 4.099248,-3.168475 c 0.541869,-0.344503 1.062179,-0.537327 1.559937,-0.578355 0.06222,-0.0051 0.123433,-0.0079 0.184691,-0.0081 z m 28.308434,1.384969 c 16.539052,7.7e-5 30.731428,10.00243 36.860858,24.290907 l 0.1067,-0.0037 c 0.36706,-0.01184 0.63384,0.225203 0.72404,0.513033 0.0887,0.282951 0.009,0.624017 -0.28697,0.824229 1.73572,4.487421 2.68719,9.365876 2.68721,14.467681 3e-4,22.151044 -17.94079,40.093544 -40.091838,40.093644 -22.151332,3e-4 -40.093611,-17.94232 -40.093314,-40.093644 1.03e-4,-22.151049 17.942265,-40.092476 40.093314,-40.09218 z m -28.730795,0.875606 c -0.162438,1.53e-4 -0.278268,0.02679 -0.348042,0.08074 l -1.583483,1.224234 0.896964,1.159645 1.587162,-1.226435 c 0.08433,-0.06514 0.15217,-0.1671 0.203822,-0.304591 0.04942,-0.140373 -0.02075,-0.339246 -0.210445,-0.596703 -0.201059,-0.230089 -0.382876,-0.342187 -0.545978,-0.336885 z m 61.919913,1.187536 1.2509,1.139829 -2.34212,2.571037 -1.25089,-1.139829 z m -69.415702,2.220942 6.102148,5.111248 -1.663687,1.986077 -2.535633,-2.12406 1.466488,3.39967 -0.09198,0.110093 -3.604778,-0.847716 2.535633,2.12406 -1.663687,1.985343 -6.101412,-5.111249 1.663687,-1.986076 3.653342,0.788999 -1.42381,-3.451047 z m 72.342062,0.267893 4.20226,5.193451 -4.51351,7.07604 -1.89253,-2.339842 0.79836,-1.291023 -1.48709,-1.838552 -1.42969,0.511565 -1.79614,-2.219474 5.49951,-2.08883 -1.22366,-1.512677 z m 1.59305,4.772896 -3.16844,1.096525 1.37966,1.704973 z m 5.37589,4.301698 2.35021,4.617298 c 0.23762,0.596523 0.32489,1.141782 0.26268,1.635247 -0.0622,0.493483 -0.25906,0.932317 -0.59159,1.315977 -0.56212,0.451029 -1.04369,0.703695 -1.44442,0.758908 -0.40061,0.05546 -0.79069,-0.0054 -1.16995,-0.183488 -0.37926,-0.178071 -0.77437,-0.508776 -1.1854,-0.992305 l -0.40765,0.875606 1.07945,2.121858 -2.1118,1.075241 -1.42528,-2.80003 1.19791,-3.442974 -2.34285,1.192674 -1.30534,-2.563698 z M 38.445924,52.45156 c 0.708562,-0.04905 1.451042,0.123322 2.22806,0.516703 0.777018,0.393381 1.357017,0.891092 1.740213,1.49286 0.383196,0.601768 0.556873,1.280188 0.520224,2.035986 -0.03499,0.75251 -0.26821,1.55494 -0.699764,2.407365 -0.431559,0.852417 -0.940306,1.516077 -1.526089,1.989747 -0.587409,0.46872 -1.23122,0.723178 -1.931525,0.764045 -0.703582,0.03921 -1.447426,-0.139814 -2.231004,-0.53652 -0.593415,-0.300426 -1.068881,-0.654313 -1.426753,-1.06203 -0.361151,-0.40938 -0.607996,-0.866015 -0.740234,-1.369556 -0.132247,-0.50356 -0.149018,-1.047015 -0.05077,-1.631577 0.09496,-0.586234 0.303987,-1.199233 0.627654,-1.838552 0.429894,-0.849148 0.94165,-1.510986 1.535654,-1.984609 0.590724,-0.475285 1.24249,-0.736485 1.954336,-0.783862 z m 84.527956,2.674525 -1.30681,0.664961 0.91021,1.787909 c 0.0481,0.09511 0.13475,0.181412 0.26048,0.257618 0.12872,0.07468 0.33719,0.04232 0.62544,-0.09615 0.2635,-0.154739 0.40826,-0.312908 0.4334,-0.474134 0.0301,-0.159631 0.0245,-0.27809 -0.0155,-0.356701 z m -84.912054,0.09688 c -0.442221,0.02736 -0.82549,0.362193 -1.150821,1.004782 -0.512887,1.013073 -0.202098,1.807372 0.932283,2.381677 0.455714,0.23071 0.90374,0.329556 1.344342,0.297251 0.442262,-0.03558 0.815982,-0.354548 1.121388,-0.957808 0.235694,-0.46556 0.3228,-0.858142 0.261952,-1.177261 -0.0592,-0.322415 -0.187568,-0.56883 -0.38557,-0.73909 -0.199621,-0.175202 -0.454649,-0.354188 -0.765987,-0.53652 -0.46568,-0.211049 -0.91865,-0.302066 -1.357587,-0.273031 z m -4.915272,6.660623 1.292835,1.952315 c -0.279878,0.200712 -0.49159,0.389202 -0.635748,0.56441 -0.144163,0.175199 -0.289752,0.486417 -0.436341,0.934322 -0.05753,0.455835 -0.05201,0.808348 0.01619,1.057626 0.0682,0.249277 0.188477,0.480236 0.361287,0.692118 0.172813,0.211881 0.468681,0.387046 0.888134,0.526244 0.434223,0.08229 0.778329,0.07251 1.032354,-0.02862 0.254045,-0.101101 0.471895,-0.243924 0.652672,-0.428629 0.180789,-0.184677 0.356227,-0.489679 0.527582,-0.915973 0.08967,-0.462685 0.114382,-0.805816 0.07358,-1.029002 -0.0408,-0.223186 -0.134847,-0.490735 -0.281819,-0.80221 l 2.079425,-1.077443 c 0.298167,0.548118 0.468947,1.059396 0.512866,1.533961 0.04391,0.474558 -0.01989,1.129959 -0.191313,1.96626 -0.249412,0.785692 -0.521367,1.358783 -0.816023,1.718918 -0.298208,0.359223 -0.65552,0.698739 -1.072824,1.019461 -0.419935,0.316251 -0.89609,0.52701 -1.428225,0.631933 -0.534779,0.100425 -1.114919,0.06921 -1.740948,-0.09321 -0.618918,-0.160584 -1.136169,-0.414273 -1.551107,-0.761109 -0.417573,-0.351315 -0.731462,-0.766654 -0.941113,-1.246252 -0.212291,-0.484086 -0.359107,-0.954898 -0.441491,-1.41286 -0.08595,-0.458891 -0.04705,-1.092356 0.116995,-1.900204 0.256797,-0.814145 0.519697,-1.418051 0.788798,-1.811396 0.269101,-0.393344 0.667184,-0.756642 1.194234,-1.090654 z m 91.956056,0.08514 c 0.28433,-0.01441 0.55936,0.0044 0.82632,0.05651 0.53843,0.106723 1.01946,0.32377 1.44221,0.65175 0.4263,0.327014 0.787,0.736432 1.08239,1.227904 0.29987,0.494098 0.53058,1.042878 0.69241,1.646256 l 0.56584,2.108647 0.34804,1.299097 -2.28913,0.613584 -0.64531,-2.406631 c -0.14468,-0.539504 -0.26796,-0.934065 -0.36939,-1.1846 -0.10139,-0.250554 -0.21638,-0.467179 -0.34509,-0.649549 -0.12877,-0.182342 -0.30627,-0.327087 -0.53274,-0.433766 -0.22644,-0.10667 -0.57778,-0.1096 -1.05295,-0.0088 -0.44957,0.139567 -0.74996,0.317229 -0.90138,0.532849 -0.15144,0.215617 -0.22778,0.449529 -0.22884,0.700926 -0.001,0.251387 0.0193,0.50452 0.0611,0.759641 0.0418,0.25512 0.1284,0.627257 0.25974,1.117076 l 0.64532,2.406632 -2.28914,0.614318 -0.91388,-3.407743 c -0.22367,-0.834104 -0.27859,-1.627562 -0.16483,-2.380943 0.11731,-0.754335 0.41996,-1.406605 0.908,-1.955985 0.48902,-0.545826 1.16309,-0.933718 2.02204,-1.164049 0.3017,-0.0809 0.59496,-0.128702 0.8793,-0.143121 z m -91.181238,23.45787 h 7.36e-4 7.36e-4 7.35e-4 c 0.01299,0.0078 0.131297,0.155311 0.262688,0.328077 l 0.238405,0.314132 -0.08977,0.26936 c -0.04937,0.147917 -0.08306,0.267169 -0.07505,0.264957 0.008,-0.0022 0.08418,-0.08548 0.169238,-0.184956 0.08506,-0.09947 0.169359,-0.192014 0.187634,-0.205507 0.02362,-0.01249 0.223317,-0.0045 0.447378,0.01908 0.477799,0.05036 0.47439,0.01763 0.03973,0.342756 -0.149524,0.111801 -0.277699,0.209634 -0.284762,0.21725 h -7.35e-4 v 7.34e-4 h -7.36e-4 -7.36e-4 -7.36e-4 c -0.02063,0.0021 -0.142954,-0.03007 -0.284762,-0.07633 -0.249992,-0.0815 -0.296089,-0.10779 -0.500357,-0.286242 l -0.224425,-0.195965 0.04709,-0.411014 c 0.02367,-0.208148 0.05244,-0.376726 0.06696,-0.3956 h 7.36e-4 z m -0.232519,1.034139 h 7.36e-4 7.36e-4 c 0.06012,-0.0011 0.499322,0.133575 0.533469,0.163672 l 7.36e-4,7.34e-4 v 7.34e-4 7.34e-4 c 0.0019,0.0067 -0.07864,0.107084 -0.178805,0.223855 l -0.181747,0.212113 -0.431926,-0.04697 -0.431926,-0.04697 0.323761,-0.247342 c 0.177989,-0.136163 0.340325,-0.253271 0.361287,-0.25982 h 7.36e-4 7.36e-4 7.36e-4 7.35e-4 z m 0.584241,0.217251 c 0.01561,0.0089 0.192667,0.228142 0.392927,0.488078 0.635392,0.824729 0.979225,1.271066 1.445149,1.873048 0.249429,0.32227 0.452287,0.594902 0.451057,0.605511 -0.0012,0.01071 -0.207251,-0.0098 -0.458415,-0.04477 -0.251164,-0.03499 -0.517566,-0.07007 -0.591599,-0.07853 l -0.134655,-0.01541 -0.06843,0.347894 c -0.03777,0.191339 -0.07214,0.348884 -0.07652,0.350095 -0.0043,0.0012 -0.112175,-0.117476 -0.239141,-0.263489 -0.126956,-0.145995 -0.23372,-0.264589 -0.23767,-0.263489 -0.004,0.0011 -0.218378,0.171365 -0.476075,0.377986 -0.257696,0.20662 -0.471596,0.373625 -0.475339,0.37138 -0.0062,-0.0035 0.0689,-0.647051 0.346571,-2.976913 0.05338,-0.448006 0.10601,-0.780533 0.122146,-0.771384 z m 92.153986,0.129175 h 7.4e-4 7.4e-4 7.3e-4 7.4e-4 7.3e-4 v 7.34e-4 c 0.007,0.01359 0.0265,0.201304 0.0441,0.417619 l 0.0324,0.393399 -0.22075,0.178351 c -0.12122,0.09808 -0.21397,0.180306 -0.20603,0.182754 0.008,0.0024 0.11759,-0.02655 0.24282,-0.06459 0.12523,-0.03804 0.24593,-0.07039 0.26858,-0.07193 3.6e-4,-2e-5 0.002,-3.4e-5 0.002,0 0.0304,0.0056 0.19091,0.118623 0.36424,0.256883 0.37554,0.299662 0.38974,0.269728 -0.15158,0.309728 -0.18621,0.01372 -0.34683,0.02747 -0.35688,0.03009 h -7.3e-4 l -7.4e-4,-7.34e-4 h -7.3e-4 c -0.0186,-0.0094 -0.10482,-0.102654 -0.19941,-0.217984 -0.1668,-0.203252 -0.19103,-0.249754 -0.2671,-0.510098 l -0.0839,-0.286241 0.26048,-0.321472 c 0.13201,-0.162665 0.24691,-0.288417 0.26931,-0.296517 z m -0.75421,0.744229 7.3e-4,7.33e-4 c 0.0396,0.01554 0.35208,0.38158 0.36497,0.426427 v 7.34e-4 c 3e-5,2.77e-4 3e-5,0.0012 0,0.0015 -0.002,0.0067 -0.12425,0.04799 -0.27152,0.09248 l -0.26783,0.08073 -0.33848,-0.271563 -0.33848,-0.272296 0.40617,-0.0345 c 0.2233,-0.01893 0.42325,-0.02999 0.44444,-0.02422 z m 0.37895,0.499088 c 0.008,0.01587 0.0388,0.296266 0.0677,0.623126 0.0915,1.037079 0.14114,1.597862 0.20971,2.355988 0.0367,0.405867 0.0611,0.744757 0.0544,0.753036 -0.007,0.0084 -0.16993,-0.11935 -0.36276,-0.28404 -0.19282,-0.164708 -0.39764,-0.33834 -0.45547,-0.385325 l -0.10522,-0.08514 -0.24503,0.256149 c -0.13484,0.140912 -0.24877,0.25528 -0.25312,0.253948 -0.004,-0.0013 -0.0312,-0.159441 -0.0596,-0.35083 -0.0284,-0.191388 -0.0549,-0.348887 -0.0589,-0.350095 -0.004,-0.0012 -0.27571,0.02699 -0.60411,0.06239 -0.3284,0.0354 -0.59849,0.06117 -0.60043,0.05725 -0.003,-0.0062 0.40574,-0.508273 1.894,-2.322227 0.28618,-0.348802 0.51009,-0.600626 0.51876,-0.584226 z m -88.169534,1.771028 h 7.36e-4 7.36e-4 7.36e-4 c 0.01299,0.0078 0.130566,0.156053 0.261952,0.328811 l 0.239141,0.314132 -0.08977,0.268627 c -0.04937,0.147916 -0.08306,0.267177 -0.07505,0.264957 0.008,-0.0022 0.08418,-0.08548 0.169239,-0.184957 0.08506,-0.09948 0.169363,-0.192005 0.187634,-0.205506 l 7.35e-4,-7.34e-4 c 0.02361,-0.01248 0.222587,-0.0038 0.446643,0.01982 0.477799,0.05036 0.473649,0.01762 0.039,0.342756 -0.149524,0.111801 -0.277704,0.209626 -0.284762,0.21725 v 7.34e-4 h -7.36e-4 -7.36e-4 -7.35e-4 c -0.02063,0.0021 -0.143691,-0.03007 -0.285498,-0.07633 -0.249991,-0.08149 -0.295352,-0.10779 -0.499621,-0.286241 l -0.224425,-0.195966 0.04636,-0.411013 c 0.02367,-0.208159 0.05318,-0.376718 0.0677,-0.395601 z m -0.236197,1.034874 h 7.35e-4 c 0.04174,-0.0082 0.502144,0.132081 0.537148,0.162937 l 7.36e-4,7.34e-4 7.36e-4,7.34e-4 v 7.34e-4 c 0.0019,0.0067 -0.07864,0.107084 -0.178804,0.223856 l -0.182483,0.212112 -0.431926,-0.04697 -0.43119,-0.04697 0.323025,-0.247342 c 0.177989,-0.136162 0.341056,-0.253281 0.362023,-0.259819 z m 0.587919,0.216516 c 0.01561,0.0089 0.191932,0.228876 0.392192,0.488812 0.635391,0.824729 0.979961,1.270332 1.445884,1.872314 0.249434,0.322279 0.452287,0.594903 0.451057,0.605511 -0.0012,0.01071 -0.207987,-0.0098 -0.459151,-0.04477 -0.251169,-0.035 -0.516835,-0.07008 -0.590863,-0.07853 l -0.134654,-0.01541 -0.06843,0.347894 c -0.03777,0.191331 -0.07288,0.348884 -0.07726,0.350096 -0.0043,0.0012 -0.111443,-0.117486 -0.238405,-0.263489 -0.126959,-0.146005 -0.234451,-0.26458 -0.238405,-0.26349 -0.004,0.0011 -0.217642,0.171365 -0.47534,0.377986 -0.257695,0.206621 -0.471592,0.373634 -0.475339,0.37138 -0.0062,-0.0035 0.0689,-0.647051 0.346571,-2.976913 0.05339,-0.447997 0.10601,-0.780533 0.122146,-0.771384 z m 84.107812,0.01248 h 7.3e-4 7.4e-4 l 7.3e-4,7.34e-4 h 7.4e-4 v 7.34e-4 c 0.007,0.01358 0.0272,0.201304 0.0449,0.417619 l 0.0316,0.393399 -0.22001,0.17835 c -0.12124,0.09809 -0.21396,0.180316 -0.20603,0.182755 0.008,0.0024 0.11686,-0.02655 0.24209,-0.06459 0.12523,-0.03803 0.24591,-0.07038 0.26857,-0.07193 3.6e-4,-1.4e-5 10e-4,-3.3e-5 10e-4,0 0.0304,0.0056 0.19164,0.118624 0.36497,0.256884 0.37555,0.299657 0.39048,0.269714 -0.15084,0.309728 -0.18619,0.01371 -0.34683,0.02747 -0.35687,0.03009 h -7.4e-4 -7.4e-4 l -7.3e-4,-7.34e-4 h -7.4e-4 c -0.0186,-0.0094 -0.10406,-0.102649 -0.19867,-0.217984 -0.16679,-0.203256 -0.19177,-0.249754 -0.26784,-0.510097 l -0.0831,-0.286976 0.26048,-0.320737 c 0.13215,-0.162842 0.24709,-0.289396 0.26931,-0.297251 z m -89.559496,0.146791 h 7.36e-4 7.36e-4 c 0.01299,0.0078 0.131297,0.15531 0.262687,0.328076 l 0.239141,0.314132 -0.08977,0.269361 c -0.04937,0.147917 -0.0838,0.26717 -0.07579,0.264957 0.008,-0.0022 0.08418,-0.08548 0.169238,-0.184956 0.08506,-0.09947 0.170099,-0.192006 0.18837,-0.205507 l 7.36e-4,-7.34e-4 c 0.02361,-0.01248 0.221852,-0.0038 0.445906,0.01982 0.4778,0.05036 0.474386,0.01762 0.03974,0.342756 -0.149527,0.111791 -0.2777,0.209634 -0.284762,0.21725 h -7.36e-4 v 7.34e-4 h -7.36e-4 c -4.88e-4,-1.7e-5 -0.0013,-2.9e-5 -0.0015,0 -0.02063,0.002 -0.142954,-0.03007 -0.284762,-0.07633 -0.249994,-0.0815 -0.295353,-0.10779 -0.499621,-0.286242 l -0.225161,-0.196699 0.04709,-0.41028 c 0.02368,-0.208149 0.05318,-0.376726 0.0677,-0.395601 z m 88.804546,0.598171 c 2.7e-4,8e-5 0.002,6.1e-4 0.002,7.34e-4 0.0437,0.02101 0.35071,0.38194 0.3635,0.426427 v 7.34e-4 7.34e-4 7.34e-4 c -0.002,0.0067 -0.12351,0.048 -0.27078,0.09248 l -0.26784,0.08074 -0.33848,-0.271563 -0.33921,-0.272297 0.40617,-0.0345 c 0.2233,-0.01893 0.42324,-0.02999 0.44444,-0.02422 z m -89.037801,0.435968 h 7.36e-4 7.36e-4 c 0.06012,-0.0011 0.499317,0.133566 0.533469,0.163672 l 7.36e-4,7.34e-4 v 7.34e-4 l 7.35e-4,7.34e-4 c 0.0019,0.0067 -0.07938,0.107083 -0.179539,0.223855 l -0.181748,0.212113 -0.431926,-0.04697 -0.431925,-0.04697 0.32376,-0.247343 c 0.177988,-0.136161 0.341056,-0.253279 0.362023,-0.259819 h 7.36e-4 7.36e-4 7.35e-4 z m 89.416741,0.06312 c 0.008,0.01587 0.0388,0.296266 0.0677,0.623126 0.0915,1.037085 0.14188,1.597858 0.21044,2.355989 0.0367,0.405866 0.0611,0.744752 0.0545,0.753036 -0.007,0.0084 -0.16993,-0.11935 -0.36276,-0.28404 -0.19283,-0.164712 -0.39837,-0.338332 -0.4562,-0.385325 l -0.10523,-0.08514 -0.24502,0.25615 c -0.13483,0.140916 -0.24877,0.255288 -0.25313,0.253948 -0.004,-0.0013 -0.0312,-0.159428 -0.0596,-0.35083 -0.0284,-0.191384 -0.0549,-0.348888 -0.0589,-0.350096 -0.004,-0.0012 -0.27571,0.02699 -0.60411,0.06239 -0.3284,0.03538 -0.59849,0.06117 -0.60043,0.05725 -0.003,-0.0063 0.40572,-0.508277 1.894,-2.322227 0.28616,-0.348798 0.51008,-0.600627 0.51875,-0.584227 z m -88.8325,0.15413 c 0.01561,0.0089 0.192667,0.228143 0.392927,0.488079 0.635392,0.824729 0.979226,1.271066 1.445149,1.873048 0.249434,0.322278 0.453023,0.594902 0.451793,0.605511 -0.0012,0.01071 -0.207983,-0.0098 -0.459151,-0.04477 -0.251164,-0.03499 -0.517566,-0.07007 -0.591599,-0.07853 l -0.133919,-0.01541 -0.06917,0.347894 c -0.03777,0.191339 -0.07214,0.348884 -0.07652,0.350095 -0.0043,0.0012 -0.111439,-0.117476 -0.238406,-0.263489 -0.126954,-0.145996 -0.234456,-0.264588 -0.238405,-0.263489 -0.004,0.0011 -0.217643,0.170631 -0.475339,0.377252 -0.257697,0.206621 -0.472329,0.374368 -0.476075,0.372114 -0.0062,-0.0035 0.0689,-0.647051 0.346571,-2.976913 0.05339,-0.447997 0.106011,-0.780534 0.122146,-0.771385 z m 94.26505,0.159268 h 7.4e-4 7.4e-4 7.3e-4 7.4e-4 7.3e-4 v 7.34e-4 c 0.007,0.01359 0.0272,0.202029 0.0449,0.418353 l 0.0316,0.393399 -0.22001,0.177617 c -0.12123,0.09807 -0.21397,0.180306 -0.20603,0.182754 0.008,0.0024 0.11686,-0.02654 0.24208,-0.06459 0.12524,-0.03804 0.24591,-0.07039 0.26858,-0.07193 3.5e-4,-2.4e-5 0.001,-3.8e-5 0.001,0 0.0304,0.0056 0.19237,0.118637 0.3657,0.256883 0.37554,0.299667 0.38975,0.270457 -0.15158,0.310462 -0.18619,0.01372 -0.34681,0.02674 -0.35687,0.02936 h -7.3e-4 -7.4e-4 -7.4e-4 l -7.3e-4,-7.34e-4 c -0.0186,-0.0094 -0.10409,-0.102662 -0.19867,-0.217984 -0.1668,-0.203264 -0.19103,-0.249745 -0.26711,-0.510097 l -0.0839,-0.286242 0.26048,-0.320737 c 0.12978,-0.159921 0.24351,-0.285386 0.26857,-0.297251 z m -0.75421,0.744962 c 2.9e-4,8.5e-5 0.002,6.1e-4 0.002,7.34e-4 0.044,0.02118 0.35623,0.387563 0.36423,0.427161 v 7.34e-4 l -7.4e-4,7.34e-4 c -0.002,0.0067 -0.1235,0.04798 -0.27078,0.09248 l -0.26784,0.08073 -0.33847,-0.272297 -0.33848,-0.272296 0.40544,-0.0345 c 0.2233,-0.01893 0.42324,-0.02925 0.44443,-0.02349 z m 0.37895,0.498354 c 0.008,0.01587 0.0388,0.296257 0.0677,0.623126 0.0915,1.037076 0.14188,1.598592 0.21045,2.356723 0.0367,0.405875 0.0611,0.744761 0.0544,0.753036 -0.007,0.0084 -0.16993,-0.120084 -0.36276,-0.284774 -0.19282,-0.164708 -0.39838,-0.337606 -0.45621,-0.384591 l -0.10449,-0.08587 -0.24576,0.25615 c -0.13483,0.140907 -0.24878,0.255284 -0.25312,0.253948 -0.004,-0.0013 -0.0305,-0.158699 -0.0589,-0.350096 -0.0284,-0.191388 -0.0549,-0.348888 -0.0589,-0.350095 -0.004,-0.0012 -0.27644,0.02626 -0.60485,0.06165 -0.32839,0.0354 -0.59848,0.06117 -0.60042,0.05725 -0.003,-0.0062 0.40646,-0.508273 1.89473,-2.322227 0.28618,-0.348793 0.50935,-0.600626 0.51802,-0.584227 z m -83.274863,6.845578 4.302334,5.30795 c 0.35681,0.53359 0.561992,1.04907 0.614409,1.5457 0.0524,0.49662 -0.05493,0.96589 -0.320817,1.40846 -0.355101,0.49596 -0.655909,0.82479 -0.90285,0.98716 -0.246832,0.16253 -0.497949,0.29121 -0.753479,0.38459 -0.2554,0.0936 -0.639016,0.0923 -1.151557,-0.003 -0.512541,-0.0952 -1.015679,-0.36866 -1.509165,-0.81983 l -1.568766,-1.9347 -2.042634,1.65653 -1.811587,-2.23415 4.34354,-3.5215 -1.041184,-1.28369 z m 72.818133,0.0418 3.71221,2.82866 c 0.51927,0.40955 0.87325,0.81787 1.06179,1.22496 0.18784,0.40195 0.28961,0.81034 0.3061,1.22497 0.0187,0.41171 -0.0589,0.85351 -0.23399,1.32552 -0.17286,0.46907 -0.43212,0.94211 -0.77703,1.41873 -0.30518,0.38211 -0.65927,0.73798 -1.06326,1.0679 -0.40467,0.3248 -0.82711,0.55724 -1.26708,0.69799 -0.4377,0.13786 -0.8842,0.16278 -1.33919,0.0749 -0.45276,-0.0908 -0.94498,-0.33826 -1.47679,-0.7435 l -3.71662,-2.83232 1.57097,-2.06094 3.74312,2.85214 c 0.41323,0.34263 0.77251,0.48661 1.07723,0.4323 0.30475,-0.0543 0.61024,-0.26964 0.9161,-0.64662 0.23041,-0.31431 0.33642,-0.64235 0.31934,-0.98349 -0.0171,-0.34114 -0.23755,-0.66369 -0.6615,-0.96809 l -3.74311,-2.85214 z m -71.507639,4.72666 -1.139784,0.92405 1.263401,1.55818 c 0.06707,0.0828 0.169678,0.14829 0.308308,0.1967 0.14147,0.0461 0.338545,-0.0289 0.591599,-0.22459 0.225461,-0.20638 0.334283,-0.39119 0.325232,-0.55414 -0.0039,-0.16238 -0.03426,-0.2772 -0.08977,-0.34569 z m 5.419308,3.26756 1.99039,1.65726 -3.577552,4.29656 3.311922,2.75673 -1.517259,1.82167 -5.302313,-4.41326 z m 60.689631,0.27523 c 0.35085,0.005 0.69556,0.0646 1.03309,0.17982 0.67266,0.22763 1.29134,0.67278 1.85647,1.33506 0.56514,0.66228 0.90801,1.34483 1.02941,2.04773 0.12138,0.70291 0.02,1.39595 -0.30537,2.07929 -0.32259,0.68094 -0.84762,1.33189 -1.57465,1.95231 -0.72702,0.62042 -1.45188,1.03623 -2.17508,1.24772 -0.7228,0.20632 -1.41533,0.1931 -2.07722,-0.0389 -0.66428,-0.2348 -1.28141,-0.68628 -1.85132,-1.35414 -0.4316,-0.5058 -0.73364,-1.01548 -0.90653,-1.52956 -0.17526,-0.51688 -0.22677,-1.03302 -0.15452,-1.54864 0.0723,-0.51561 0.26587,-1.02428 0.58203,-1.52589 0.31378,-0.5044 0.74389,-0.98938 1.28916,-1.45469 0.72423,-0.61803 1.45167,-1.03135 2.18244,-1.23965 0.36418,-0.10554 0.72123,-0.1553 1.07209,-0.15046 z m -0.71669,2.53801 c -0.3382,0.006 -0.71254,0.18501 -1.1236,0.53579 -0.86404,0.73734 -0.88318,1.58876 -0.0581,2.55562 0.33148,0.38842 0.7061,0.65278 1.12507,0.79267 0.42177,0.1375 0.89017,-0.0131 1.40468,-0.45212 0.39708,-0.33882 0.62912,-0.66701 0.69608,-0.98496 0.0698,-0.32032 0.0464,-0.59745 -0.0706,-0.83084 -0.11659,-0.23856 -0.28342,-0.50159 -0.50036,-0.78973 -0.34824,-0.37412 -0.73023,-0.63278 -1.14641,-0.77505 -0.10464,-0.0363 -0.21396,-0.0534 -0.3267,-0.0514 z m -6.42885,2.09397 3.79682,6.9931 -2.27736,1.23745 -3.5025,-1.48332 1.4194,2.61507 -2.27736,1.23745 -3.796092,-6.99311 2.276624,-1.23744 3.503238,1.48332 -1.4194,-2.61508 z m -46.467719,1.2301 c 0.272164,-0.003 0.553478,0.0222 0.844721,0.0771 0.584209,0.10642 1.19291,0.3281 1.825567,0.66423 0.840297,0.44643 1.491358,0.97118 1.952864,1.57432 0.463217,0.59992 0.710944,1.25588 0.743913,1.96847 0.03468,0.70935 -0.152365,1.44888 -0.56143,2.218 -0.40906,0.76914 -0.91812,1.33881 -1.52756,1.71011 -0.609435,0.37132 -1.292121,0.53145 -2.047049,0.48001 -0.751684,-0.0497 -1.548603,-0.29828 -2.392148,-0.74643 -0.84354,-0.44816 -1.496299,-0.96986 -1.958015,-1.56479 -0.456727,-0.59646 -0.698835,-1.24551 -0.725518,-1.94644 -0.02494,-0.70419 0.168779,-1.44386 0.581297,-2.21948 0.312405,-0.58738 0.676313,-1.05572 1.09122,-1.40552 0.41664,-0.35302 0.877938,-0.59104 1.384076,-0.7134 0.253079,-0.0612 0.515904,-0.093 0.788062,-0.0962 z m 0.742442,2.41838 c -0.60215,-0.0105 -1.108893,0.3708 -1.519467,1.14276 -0.239912,0.45109 -0.347872,0.89686 -0.324496,1.338 0.02662,0.44285 0.338263,0.82267 0.935226,1.13983 0.460702,0.24475 0.85111,0.34008 1.171424,0.28551 0.323553,-0.0529 0.572607,-0.17676 0.746857,-0.37139 0.179225,-0.19613 0.363259,-0.44753 0.551864,-0.75523 0.220449,-0.46144 0.320347,-0.91254 0.300214,-1.35194 -0.0184,-0.44265 -0.345681,-0.83282 -0.981582,-1.17066 -0.313287,-0.16644 -0.606334,-0.25211 -0.88004,-0.25688 z m 38.471568,0.21138 0.735084,2.2525 -1.844699,0.60331 c -0.907048,0.2654 -0.959268,0.55608 -0.155994,0.8734 1.455555,0.62214 2.325606,1.40499 2.609951,2.34792 0.284334,0.94292 -0.08906,1.68319 -1.119917,2.22094 l -4.024931,1.31524 -0.734347,-2.25323 1.593048,-0.52038 c 0.997888,-0.29508 1.033754,-0.61223 0.10743,-0.9512 -1.580422,-0.72049 -2.432612,-1.57854 -2.556236,-2.57397 -0.123619,-0.99543 0.296877,-1.65049 1.261194,-1.96553 z m -31.981643,0.46165 2.491483,0.7068 -1.287683,4.52849 c -0.167994,0.51011 -0.170683,0.8967 -0.0088,1.16038 0.161822,0.2637 0.474103,0.46929 0.936698,0.61578 0.376687,0.0992 0.720328,0.0785 1.031618,-0.0624 0.311279,-0.14092 0.531398,-0.46504 0.66003,-0.97102 l 1.287684,-4.52849 2.492219,0.70753 -1.277382,4.49106 c -0.191572,0.6333 -0.44269,1.11245 -0.752743,1.43708 -0.30552,0.32209 -0.648047,0.56665 -1.027939,0.73395 -0.376374,0.16827 -0.816058,0.25786 -1.319324,0.26789 -0.499725,0.011 -1.034505,-0.057 -1.604086,-0.2033 -0.467108,-0.14399 -0.927993,-0.34312 -1.382604,-0.59817 -0.450085,-0.2576 -0.820862,-0.56548 -1.112559,-0.92332 -0.288178,-0.35681 -0.474158,-0.76345 -0.558486,-1.21909 -0.08081,-0.45462 -0.02992,-1.0036 0.15305,-1.64699 z m 22.91488,2.10498 3.657021,7.55164 -2.985218,0.38606 -0.680633,-1.35634 -2.345056,0.30312 -0.314195,1.48625 -2.832167,0.36625 1.579803,-8.22982 z m -11.010062,0.51303 c 0.297139,-0.0179 0.600961,-0.0149 0.912416,0.009 l 2.176553,0.16587 1.341398,0.10202 -0.181747,2.36333 -2.484126,-0.18936 c -0.55695,-0.0424 -0.970575,-0.0574 -1.240591,-0.0448 -0.270016,0.0126 -0.512228,0.0498 -0.726989,0.11083 -0.214767,0.061 -0.410577,0.18066 -0.586448,0.3589 -0.175869,0.17823 -0.294814,0.50766 -0.357608,0.98937 -0.0177,0.47039 0.05001,0.81318 0.203086,1.02753 0.153143,0.21431 0.34828,0.3633 0.584976,0.44771 0.236768,0.0844 0.482034,0.14933 0.736555,0.1945 0.254521,0.0452 0.634868,0.087 1.14052,0.12551 l 0.122881,-1.60442 2.484862,0.18862 -0.305365,3.96849 -3.517216,-0.2679 c -0.861073,-0.0656 -1.628072,-0.27701 -2.300906,-0.63413 -0.672543,-0.36078 -1.186955,-0.86276 -1.543013,-1.50534 -0.352394,-0.64229 -0.494146,-1.40618 -0.426039,-2.29287 0.04785,-0.62288 0.209306,-1.169 0.484905,-1.63818 0.279543,-0.47257 0.644353,-0.85416 1.094163,-1.14423 0.450101,-0.29373 0.95555,-0.49859 1.517259,-0.61432 0.28283,-0.0596 0.573329,-0.0981 0.870474,-0.11597 z m 9.283094,1.48919 -0.728461,3.2727 2.175817,-0.2811 z" /><path
         id="path85"
         style="fill:#72b1c6;fill-opacity:1;stroke-width:1.42209"
         d="m 71.102318,43.480454 c -0.144435,0.0023 -0.17459,0.650481 0.01398,1.688828 0.418197,2.302843 0.532393,2.614392 0.565106,2.628283 l 7.39e-4,-6e-6 -4e-6,7.4e-4 7.4e-4,-7e-6 7.32e-4,7e-6 7.39e-4,-7e-6 7.36e-4,-7.33e-4 7.32e-4,6e-6 7.36e-4,-7.33e-4 c 2.77e-4,-2.61e-4 8.02e-4,-0.001 0.0018,-0.0015 0.004,-0.0054 0.0055,-0.01553 0.0066,-0.01909 l 7e-6,-7.3e-4 -7e-6,-7.37e-4 7.43e-4,3e-6 -7e-6,7.3e-4 c 7.26e-4,0.0041 9.89e-4,0.02342 0.0044,0.07628 0.292249,5.226695 -3.136797,13.773364 -3.136797,13.773364 0,0 3.754253,-6.855224 4.154435,-12.607845 1.488282,2.38125 3.217903,3.635294 4.606963,4.164457 2.453106,0.934517 4.409365,0.973317 8.836458,2.587914 5.726788,2.088605 8.968922,4.372244 11.324986,7.818066 0.979335,1.43232 1.385042,3.844824 1.294313,3.916371 -3.78e-4,2.12e-4 -0.0018,0.0013 -0.0018,0.0014 -3.942073,1.38719 -15.508124,4.466102 -15.508124,4.466102 0,0 -10.17132,3.167908 -12.92025,4.071971 0.461666,-0.552175 0.834254,-1.167441 1.184668,-1.864246 1.894774,-3.767778 0.230224,-8.214819 -3.698226,-9.878269 -1.766058,-0.747818 -5.330275,-0.0734 -5.330275,-0.0734 0,0 -4.139287,1.392567 -4.872594,4.92556 -0.733307,3.532993 1.555523,6.145394 1.555523,6.145394 0,0 1.692305,1.509915 1.114028,1.667534 -1.346863,0.367098 -3.398601,0.919057 -7.684158,0.548998 -2.061972,-0.178142 -3.714326,-0.518016 -5.98368,-0.358164 -4.372746,0.308023 -3.565265,2.516494 -0.66739,5.179502 0.887526,0.81559 2.536714,1.297634 3.721038,0.973958 1.184324,-0.323676 4.094842,-1.224205 4.094842,-1.224205 l 4.255243,-1.321846 -1.171425,1.906073 c -1.732784,2.821091 -1.397978,6.14578 -1.157442,7.881926 0.216071,1.559558 1.058272,3.346622 1.227344,3.693978 0.102604,0.895922 0.30963,1.885191 0.643843,3.106824 0.99053,3.619235 2.977556,7.485475 5.182374,10.279015 1.146283,1.45234 3.69179,4.15842 3.598155,3.82536 -0.01912,-0.0682 -0.369501,-0.69376 -0.778496,-1.3901 -0.959549,-1.63349 -2.919216,-7.61939 -2.944012,-9.56047 -0.07383,-5.781392 2.671855,-12.646378 8.720928,-16.193214 4.219301,-2.473965 4.195107,-2.34587 12.754691,-5.482632 7.603877,-2.786533 11.813099,-6.825681 16.256447,-6.124093 0,0 0.56345,2.241771 0.57615,2.826448 0.0221,1.015417 -0.6214,3.394033 -1.546693,5.498776 -0.95097,2.163164 -1.724688,3.209236 -5.111001,7.393105 -1.375036,1.698889 -3.810432,3.524425 -5.046984,5.467956 -1.236549,1.943541 -2.35152,2.269942 -2.417164,6.678974 C 84.215131,98.205255 74.2435,89.692934 74.2435,89.692934 c 0,0 11.987562,11.521496 12.902595,14.055216 0.11735,1.11513 0.28448,1.28533 0.594536,1.62863 0,0 0.105399,-0.21018 0.101539,-0.72074 -0.0085,-1.11958 0.125768,-5.773651 1.330367,-7.946515 1.312316,-2.367167 4.044832,-3.741756 7.296386,-7.288888 2.281988,-2.48944 4.786857,-5.951282 5.863737,-8.04926 1.64228,-3.199459 1.73178,-6.128064 1.36494,-8.832388 -0.0963,-0.709993 0.53472,-0.478639 0.766,-0.786063 0.75891,-1.008763 0.0777,-2.023844 -0.0721,-2.954888 -0.0743,-0.403407 -0.28141,-0.777016 -0.73214,-0.914512 l 7.70034,-2.055818 -0.42088,1.360018 6.4053,-4.132898 -7.74007,0.242939 1.19791,0.973956 c 0,0 -2.72689,0.789162 -5.29642,1.527386 l -3.36344,0.965848 c 0,0 -1.06441,-3.769415 -2.420849,-5.266113 -2.2468,-2.479236 -4.688136,-5.680869 -13.920966,-8.494042 -4.425665,-1.348461 -7.386253,-1.506971 -9.500155,-2.485899 -2.326935,-1.077594 -4.453794,-4.901138 -4.821084,-6.237128 -0.152861,-0.556022 -0.286461,-0.802922 -0.376005,-0.801478 z" /></g></g></svg>
